<?xml version="1.0" encoding="UTF-8"?>
<svg version="1.1" xmlns="http://www.w3.org/2000/svg" width="500" height="500">
<path d="M0 0 C0.93629871 -0.00521549 1.87259743 -0.01043099 2.83726883 -0.01580453 C4.39064516 -0.00911236 4.39064516 -0.00911236 5.97540283 -0.002285 C7.07009258 -0.00540498 8.16478233 -0.00852497 9.2926445 -0.01173949 C12.98545358 -0.01975962 16.67810015 -0.01338022 20.37091064 -0.00710678 C23.00832608 -0.00981486 25.64573006 -0.01330201 28.28314209 -0.0177269 C34.71785796 -0.0266383 41.15252727 -0.02469114 47.58724499 -0.01890162 C52.8150642 -0.01439198 58.04287032 -0.01376919 63.27069092 -0.01594925 C64.3851135 -0.01640895 64.3851135 -0.01640895 65.52204967 -0.01687793 C67.03115114 -0.01751736 68.54025261 -0.01816579 70.04935408 -0.01882312 C84.21315576 -0.02453153 98.3769316 -0.01796052 112.54072905 -0.00722238 C124.70418795 0.00171359 136.86760868 0.00016169 149.03106689 -0.00905991 C163.14284011 -0.01975353 177.25459064 -0.02398216 191.36636734 -0.01783538 C192.87003835 -0.01719825 194.37370936 -0.01656951 195.87738037 -0.01594925 C196.9872456 -0.01548642 196.9872456 -0.01548642 198.11953235 -0.01501425 C203.34342666 -0.01328458 208.56730664 -0.01620825 213.79119873 -0.02090836 C220.15400528 -0.02650713 226.51676246 -0.02502199 232.87956333 -0.01434687 C236.12838504 -0.00907654 239.37710691 -0.00812599 242.62593079 -0.01364517 C246.14159358 -0.01906908 249.65702087 -0.01230497 253.17266846 -0.002285 C254.20825268 -0.00674645 255.2438369 -0.01120789 256.31080246 -0.01580453 C257.71525053 -0.00798129 257.71525053 -0.00798129 259.14807129 0 C259.96034809 0.0003247 260.77262489 0.00064941 261.60951614 0.00098395 C263.57403564 0.25168228 263.57403564 0.25168228 265.57403564 2.25168228 C266.31239319 4.07512283 266.31239319 4.07512283 267.00689697 6.31149673 C267.27089798 7.15029877 267.53489899 7.9891008 267.80690002 8.85332108 C268.08712509 9.76466309 268.36735016 10.6760051 268.65606689 11.61496353 C268.95212326 12.55792786 269.24817963 13.50089218 269.5532074 14.47243118 C270.50353941 17.50120962 271.4457155 20.53243687 272.38653564 23.56418228 C277.51885271 40.16114587 277.51885271 40.16114587 283.49957275 56.4633522 C285.24205776 60.98526115 286.61758486 65.59505388 287.94903564 70.25168228 C288.22102783 71.15273697 288.49302002 72.05379166 288.77325439 72.98215103 C289.02462158 73.85484634 289.27598877 74.72754166 289.53497314 75.62668228 C289.87214355 76.78297134 289.87214355 76.78297134 290.21612549 77.96261978 C290.63394618 80.63484819 290.23939854 82.64773831 289.57403564 85.25168228 C286.26153564 85.12668228 286.26153564 85.12668228 282.57403564 84.25168228 C280.82403564 81.68918228 280.82403564 81.68918228 279.57403564 78.25168228 C279.33749268 77.63518814 279.10094971 77.018694 278.85723877 76.38351822 C278.34566098 75.05009404 277.84540936 73.7122813 277.35528564 72.37082291 C276.00783831 68.715872 274.54497777 65.10838099 273.07403564 61.50168228 C272.77884033 60.77787369 272.48364502 60.05406509 272.17950439 59.30832291 C267.45481902 47.93369489 260.64069792 37.65493025 251.57403564 29.25168228 C250.96688721 28.68578384 250.35973877 28.11988541 249.73419189 27.53683853 C223.87106402 4.05649403 178.76108646 9.06582875 146.17803955 10.49544144 C118.92097565 10.6794326 118.92097565 10.6794326 94.67169189 20.95871353 C90.54173482 25.57454791 89.44847211 28.96566043 89.45378113 35.19313431 C89.45240646 36.43413895 89.4510318 37.67514359 89.44961548 38.95375443 C89.45315461 40.33130288 89.45678942 41.7088511 89.46051025 43.08639908 C89.46079229 44.53509901 89.46063408 45.98379908 89.46006775 47.43249893 C89.4597804 51.36815866 89.46566701 55.30378802 89.47264171 59.23944068 C89.47888567 63.35141455 89.47947987 67.46338909 89.48066711 71.57536697 C89.48377734 79.363245 89.4919866 87.15110902 89.5020166 94.93898088 C89.51318729 103.80465977 89.5186906 112.67033932 89.52371204 121.5360235 C89.53416945 139.77458437 89.55176295 158.0131322 89.57403564 176.25168228 C97.06888748 176.29859791 104.56372359 176.33384549 112.05869007 176.35530663 C115.54115398 176.36562127 119.02351544 176.37954628 122.50592041 176.40256119 C157.57049198 177.535706 157.57049198 177.535706 189.57403564 165.25168228 C190.23403564 165.25168228 190.89403564 165.25168228 191.57403564 165.25168228 C191.91434814 164.47824478 191.91434814 164.47824478 192.26153564 163.68918228 C193.57403564 161.25168228 193.57403564 161.25168228 195.94903564 158.31418228 C202.29891185 149.61597908 203.58575177 137.71189043 203.85528564 127.25168228 C203.89266846 125.95230728 203.93005127 124.65293228 203.96856689 123.31418228 C204.00418534 121.96002769 204.03933806 120.60586078 204.07403564 119.25168228 C204.14236725 116.58483394 204.21606679 113.91832368 204.29278564 111.25168228 C204.32307861 110.07605728 204.35337158 108.90043228 204.38458252 107.68918228 C204.57978868 104.1472973 204.9201579 100.73903025 205.57403564 97.25168228 C207.32403564 95.75168228 207.32403564 95.75168228 209.57403564 95.25168228 C214.10035143 95.77799807 214.10035143 95.77799807 215.57403564 97.25168228 C215.67324774 99.46205556 215.70035977 101.67566508 215.70101929 103.8882637 C215.70257928 104.590078 215.70413927 105.2918923 215.70574653 106.0149737 C215.70975888 108.38418066 215.70656598 110.75332437 215.70343018 113.12253189 C215.70478413 114.81399447 215.70656402 116.50545676 215.70874023 118.19691849 C215.71331567 122.80429194 215.71152447 127.41164311 215.70836115 132.01901698 C215.7058377 136.83074935 215.70817508 141.64247975 215.70974731 146.45421219 C215.71156923 154.53734049 215.70916231 162.62045966 215.70440674 170.70358658 C215.69896591 180.05971633 215.70072538 189.4158243 215.70623314 198.77195352 C215.71076584 206.79147336 215.711414 214.81098663 215.70879447 222.83050734 C215.70723233 227.62603809 215.7070362 232.4215586 215.71033096 237.2170887 C215.71321188 241.72564022 215.71122989 246.23416356 215.70543671 250.74271202 C215.70411022 252.40119378 215.70450135 254.05967789 215.70669937 255.71815872 C215.70941526 257.97484399 215.7060243 260.23143784 215.70101929 262.48811722 C215.70045375 264.38598433 215.70045375 264.38598433 215.69987679 266.32219219 C215.57403564 269.25168228 215.57403564 269.25168228 214.57403564 271.25168228 C211.93403564 271.25168228 209.29403564 271.25168228 206.57403564 271.25168228 C204.81358635 267.45814199 204.34435663 264.55253434 204.41387939 260.38449478 C204.43164429 258.69562149 204.43164429 258.69562149 204.44976807 256.97262955 C204.47015137 255.78596695 204.49053467 254.59930435 204.51153564 253.37668228 C205.01627203 226.47868503 205.01627203 226.47868503 194.57403564 202.25168228 C193.87278564 201.17918228 193.17153564 200.10668228 192.44903564 199.00168228 C179.09265875 186.22601743 159.00537049 186.13120693 141.69903564 185.93527603 C140.16346724 185.91467275 138.62790408 185.89367547 137.09234619 185.87230301 C133.07458778 185.81743043 129.05678117 185.76786946 125.03894043 185.71945572 C120.92950209 185.66898447 116.82013268 185.61343293 112.71075439 185.55832291 C104.66523996 185.45116797 96.61966741 185.34963052 88.57403564 185.25168228 C88.63459574 206.62693074 88.71211384 228.00205802 88.80975056 249.37717056 C88.85469207 259.30228996 88.89411056 269.22737361 88.92047119 279.15256119 C88.94346455 287.80462075 88.9768776 296.45656703 89.02273721 305.10853672 C89.04665133 309.68854636 89.06539198 314.26844393 89.07164955 318.84851456 C89.07770858 323.16266824 89.09773798 327.47653522 89.12831116 331.79058266 C89.13707827 333.37073333 89.14081671 334.9509215 89.13904381 336.5310955 C88.99614669 349.5913737 88.99614669 349.5913737 94.76153564 361.00168228 C108.93289924 372.33877315 129.17041713 371.4271106 146.44293213 371.38205338 C148.8714631 371.37671541 151.2998073 371.38201599 153.72833252 371.38840103 C166.55666032 371.39599678 179.29843757 371.25892666 191.82403564 368.18918228 C192.71244141 367.97221695 193.60084717 367.75525162 194.51617432 367.53171158 C230.09958084 358.3197637 254.46572966 334.43061658 273.57403564 304.25168228 C274.25594971 303.17789322 274.93786377 302.10410416 275.64044189 300.99777603 C284.36032175 286.65971855 289.8231603 270.65895322 295.57550049 254.97287369 C296.43919653 252.61914361 297.31149374 250.26888471 298.18731689 247.91965103 C300.46214751 241.72593816 302.25950245 235.71480384 303.57403564 229.25168228 C303.90403564 228.92168228 304.23403564 228.59168228 304.57403564 228.25168228 C307.26486436 228.42803681 309.9025501 228.87004149 312.57403564 229.25168228 C313.53183532 232.96341348 313.55066018 235.38321554 312.49200439 239.05636978 C312.09090454 240.4895253 312.09090454 240.4895253 311.68170166 241.95163345 C311.22621948 243.52328262 311.22621948 243.52328262 310.76153564 245.12668228 C310.10532378 247.47362257 309.45185276 249.82133032 308.80059814 252.16965103 C308.62426346 252.80210236 308.44792877 253.43455368 308.26625061 254.0861702 C305.9293603 262.50396191 303.7919862 270.97352279 301.63653564 279.43918228 C300.78283118 282.78825862 299.92859512 286.13719901 299.07403564 289.48605728 C298.86427094 290.30860504 298.65450623 291.1311528 298.43838501 291.97862625 C297.06615675 297.35104314 295.67173664 302.71724254 294.26153564 308.07980728 C289.83279169 324.93224588 289.83279169 324.93224588 286.41778564 342.01340103 C284.0305387 354.90387867 280.17269925 367.65635966 276.57403564 380.25168228 C183.51403564 380.25168228 90.45403564 380.25168228 -5.42596436 380.25168228 C-5.75596436 378.27168228 -6.08596436 376.29168228 -6.42596436 374.25168228 C-3.50906859 371.33478652 -0.22797835 371.70417557 3.69903564 371.37668228 C13.15733433 370.40197587 19.12026893 368.62758578 25.34747314 361.13058853 C28.01355524 357.04655832 28.82431588 353.45059493 28.83130455 348.60993481 C28.83775344 347.47875978 28.84420233 346.34758476 28.85084665 345.18213171 C28.84774944 343.9442141 28.84465224 342.7062965 28.84146118 341.43086624 C28.84599229 340.11198994 28.85052341 338.79311364 28.85519183 337.4342714 C28.86742917 333.77460043 28.86716049 330.11502083 28.86480308 326.45533407 C28.86439508 322.50762928 28.87543264 318.55995385 28.88491821 314.61226273 C28.90153474 306.87719057 28.90702811 299.14214889 28.90814297 291.40706038 C28.90909342 285.11723188 28.9132036 278.82741344 28.91954422 272.53758812 C28.93716077 254.69855251 28.9463828 236.85954097 28.94488327 219.0204966 C28.9447634 217.5777863 28.9447634 217.5777863 28.94464111 216.10593033 C28.94455935 215.14294638 28.94447759 214.17996242 28.94439335 213.18779714 C28.94358101 197.5924519 28.96270446 181.99720337 28.99091785 166.4018861 C29.01966901 150.38260718 29.03345682 134.36337538 29.03173029 118.34407002 C29.03106702 109.35303704 29.0365316 100.36210536 29.0580864 91.37109566 C29.0763279 83.71305899 29.08062145 76.0551695 29.06706755 68.39712047 C29.06055196 64.49280731 29.06036914 60.58877626 29.07777405 56.6844902 C29.09357358 53.10332144 29.09057193 49.52265682 29.07320578 45.94149984 C29.06871443 44.04679689 29.08373942 42.15207787 29.09968507 40.25743669 C29.03081029 31.65010833 28.03020753 22.67990251 22.57403564 15.68918228 C13.91414712 11.53965236 3.99512716 10.54328354 -5.42596436 9.25168228 C-6.05096436 5.87668228 -6.05096436 5.87668228 -6.42596436 2.25168228 C-3.97909214 -0.19518993 -3.35675912 0.00134185 0 0 Z " fill="#FCFCFC" transform="translate(45.42596435546875,37.74831771850586)"/>
<path d="M0 0 C3.47541533 1.16129113 6.68369783 2.65534295 9.91796875 4.38671875 C8.96008516 7.7393113 7.96868115 10.31310398 5.98046875 13.19921875 C-2.1655848 25.78857423 -1.05400412 41.35049635 1.9375 55.41796875 C4.10579122 64.69331193 7.93283326 73.29905181 12.91796875 81.38671875 C13.33433594 82.08925781 13.75070312 82.79179687 14.1796875 83.515625 C21.14293718 94.66879569 30.5975001 103.4024414 40.91796875 111.38671875 C42.01170995 112.2561881 43.10410515 113.12735272 44.1953125 114 C58.99886379 125.80533702 74.36873478 136.42015756 90.28442383 146.67822266 C93.517143 148.77542937 96.72405038 150.90934867 99.92578125 153.0534668 C101.65918898 154.21353292 103.39933286 155.36352127 105.140625 156.51171875 C110.87764278 160.29957093 116.48687291 164.17236536 121.91796875 168.38671875 C122.62308594 168.92941406 123.32820312 169.47210938 124.0546875 170.03125 C126.35055133 171.80623722 128.63413699 173.59628436 130.91796875 175.38671875 C131.83964844 176.09699219 132.76132812 176.80726563 133.7109375 177.5390625 C134.62488281 178.25191406 135.53882813 178.96476563 136.48046875 179.69921875 C137.32738281 180.35535156 138.17429687 181.01148438 139.046875 181.6875 C139.66433594 182.24824219 140.28179687 182.80898437 140.91796875 183.38671875 C140.91796875 184.04671875 140.91796875 184.70671875 140.91796875 185.38671875 C141.7378125 185.73476563 141.7378125 185.73476563 142.57421875 186.08984375 C150.64871547 190.55773193 157.4050338 198.66645724 163.41796875 205.57421875 C163.90974609 206.13141602 164.40152344 206.68861328 164.90820312 207.26269531 C180.77926184 225.94676236 183.6542689 253.93028654 181.91796875 277.38671875 C180.08634459 293.74922795 174.36490571 309.53567496 163.91796875 322.38671875 C163.23992187 323.2271875 162.561875 324.06765625 161.86328125 324.93359375 C156.55516759 331.16732154 150.73515889 335.88737326 143.91796875 340.38671875 C143.139375 340.92039062 142.36078125 341.4540625 141.55859375 342.00390625 C123.64227035 353.60743114 103.0087788 355.71770942 82.24291992 356.94970703 C79.06535213 357.13910995 75.88923182 357.34580417 72.71289062 357.5546875 C70.69146892 357.68198873 68.66998633 357.80832757 66.6484375 357.93359375 C65.22521431 358.02565094 65.22521431 358.02565094 63.77323914 358.11956787 C62.90085098 358.17002258 62.02846283 358.22047729 61.12963867 358.27246094 C60.36213791 358.31892761 59.59463715 358.36539429 58.80387878 358.41326904 C56.91796875 358.38671875 56.91796875 358.38671875 54.91796875 357.38671875 C55.45013808 352.17145936 56.0835398 347.84304215 58.91796875 343.38671875 C62.46885138 342.12450794 66.05185583 341.95317385 69.79296875 341.69921875 C71.89142028 341.48958453 73.98911085 341.27218223 76.0859375 341.046875 C77.09575684 340.94133301 78.10557617 340.83579102 79.14599609 340.72705078 C93.5606993 338.95726954 107.74748728 331.33536397 116.85546875 319.96875 C126.15206134 307.16656729 129.53811362 291.9238785 127.23046875 276.19921875 C123.44459692 257.46781369 113.50144853 242.66971643 99.359375 230.21875 C98.76600342 229.6923291 98.17263184 229.1659082 97.5612793 228.62353516 C96.41268486 227.61718692 95.24931326 226.62737229 94.06958008 225.65771484 C91.26582767 223.22731029 89.976719 221.59486248 88.9609375 217.99609375 C88.91428189 214.07702278 89.44838589 210.75896676 90.35546875 206.94921875 C90.64292969 205.71300781 90.93039062 204.47679687 91.2265625 203.203125 C91.45472656 202.27371094 91.68289063 201.34429687 91.91796875 200.38671875 C88.70965484 200.35747045 85.50137568 200.33983686 82.29296875 200.32421875 C81.38933594 200.31583984 80.48570312 200.30746094 79.5546875 200.29882812 C74.10147264 200.26719262 74.10147264 200.26719262 68.75 201.203125 C64.2644779 201.49391057 61.70484775 199.00951381 58.23046875 196.38671875 C56.79670157 195.3499998 55.36180453 194.31484163 53.92578125 193.28125 C53.23387695 192.77674316 52.54197266 192.27223633 51.82910156 191.75244141 C49.48661885 190.07846999 47.06663516 188.56712063 44.60546875 187.07421875 C36.92329719 182.25133077 29.74217067 176.70156251 22.47460938 171.28466797 C19.89644169 169.37073791 17.30769095 167.47211124 14.71484375 165.578125 C13.86921875 164.95945557 13.02359375 164.34078613 12.15234375 163.70336914 C10.54431749 162.52753155 8.93502357 161.35342478 7.32421875 160.18139648 C-5.32092137 150.90893852 -5.32092137 150.90893852 -7.08203125 147.38671875 C-7.20424354 144.85499485 -7.2676757 142.34893354 -7.28735352 139.81591797 C-7.29725311 139.03534027 -7.30715271 138.25476257 -7.31735229 137.45053101 C-7.34900103 134.8641872 -7.37373801 132.277825 -7.3984375 129.69140625 C-7.41900412 127.90064001 -7.44000051 126.10987867 -7.46141052 124.31912231 C-7.51666138 119.60093132 -7.56605735 114.8826963 -7.61425781 110.16442871 C-7.66445085 105.35176668 -7.72014837 100.53916875 -7.77539062 95.7265625 C-7.88300908 86.28000059 -7.98393733 76.83338437 -8.08203125 67.38671875 C-15.34203125 67.38671875 -22.60203125 67.38671875 -30.08203125 67.38671875 C-30.13101563 69.72765625 -30.18 72.06859375 -30.23046875 74.48046875 C-30.28484208 76.80750665 -30.34200462 79.13446103 -30.39941406 81.46142578 C-30.43714341 83.04957571 -30.47208099 84.63779501 -30.50390625 86.22607422 C-30.72363347 97.06823914 -31.51696106 107.65375798 -33.08203125 118.38671875 C-35.06203125 118.88171875 -35.06203125 118.88171875 -37.08203125 119.38671875 C-52.55865195 98.71044287 -61.30835542 76.94877773 -58.51953125 50.76171875 C-55.53046854 32.12989452 -46.40144408 16.49860532 -33.08203125 3.38671875 C-32.31632812 2.62488281 -31.550625 1.86304688 -30.76171875 1.078125 C-21.28089299 -7.36626641 -10.94076241 -3.43109651 0 0 Z " fill="#FAFAFA" transform="translate(275.08203125,60.61328125)"/>
<path d="M0 0 C1.08240967 0.24073242 2.16481934 0.48146484 3.2800293 0.72949219 C13.32934202 3.16432731 22.19086524 7.05666379 31.4375 11.625 C33.53429005 12.65314731 35.63283069 13.67713615 37.7358551 14.69247437 C39.02756274 15.31678224 40.31578757 15.94837706 41.59947205 16.58901978 C48.86637835 20.11717741 56.03539984 22.09754737 64 20 C68.00733209 17.61265322 69.77744843 15.4826891 71 11 C71.13438927 9.60503935 71.25882748 8.20909573 71.375 6.8125 C72 3 72 3 73.6875 1.4375 C76.64812078 0.87738256 79.05706006 1.4565022 82 2 C82.04669547 17.46384495 82.0819768 32.92768463 82.10362434 48.39158344 C82.11394229 55.57154508 82.12801249 62.75146294 82.15087891 69.93139648 C82.17079696 76.18853557 82.18371267 82.44564295 82.18817699 88.70281285 C82.19078707 92.01675216 82.1979767 95.33057948 82.21146011 98.64449501 C82.22590873 102.34158403 82.22798071 106.03848314 82.22705078 109.7355957 C82.23424133 110.83754776 82.24143188 111.93949982 82.24884033 113.07484436 C82.246091 114.08025269 82.24334167 115.08566101 82.24050903 116.12153625 C82.24235262 116.9963178 82.24419621 117.87109934 82.24609566 118.77238941 C82 121 82 121 80 124 C76.9375 124.25 76.9375 124.25 74 124 C72.49228551 122.49228551 72.75378937 121.08185997 72.60546875 118.9765625 C70.40241399 90.71613105 64.30171942 63.7022694 45 42 C44.34644531 41.25105469 43.69289063 40.50210938 43.01953125 39.73046875 C38.31930695 34.68477341 33.03616671 30.66935209 27.4375 26.6875 C26.72916016 26.18355713 26.02082031 25.67961426 25.29101562 25.16040039 C18.05336985 20.14217634 10.9100779 16.6970898 2.4375 14.3125 C1.72142578 14.10044922 1.00535156 13.88839844 0.26757812 13.66992188 C-7.57717564 11.4071494 -15.31420936 10.79424639 -23.4375 10.4375 C-24.35982422 10.39431641 -25.28214844 10.35113281 -26.23242188 10.30664062 C-28.48816163 10.20145069 -30.74399499 10.09930893 -33 10 C-33.67595315 8.58774074 -34.34040059 7.16997095 -35 5.75 C-35.37125 4.96109375 -35.7425 4.1721875 -36.125 3.359375 C-37 1 -37 1 -37 -3 C-28.03558954 -7.48220523 -9.4093646 -2.14763855 0 0 Z " fill="#F0F0F0" transform="translate(354,40)"/>
<path d="M0 0 C2.89846541 2.89846541 2.47606398 6.01651514 2.67578125 9.91796875 C2.77904954 11.57125892 2.88316853 13.22449612 2.98803711 14.87768555 C3.0403952 15.74533539 3.0927533 16.61298523 3.146698 17.50692749 C4.12803617 33.37252686 5.70930236 48.63687915 10 64 C10.28359375 65.09183594 10.5671875 66.18367188 10.859375 67.30859375 C17.26604365 89.09731119 29.29275646 109.70400484 47 124 C46.70117188 125.87280273 46.70117188 125.87280273 46 128 C43.49213193 129.58567872 41.17933812 130.83896687 38.5 132.0625 C37.74332031 132.41538086 36.98664063 132.76826172 36.20703125 133.13183594 C30.17230274 135.79758998 24.34025583 137.13995728 17.83398438 138.05444336 C13.04189901 138.73766359 9.28223605 139.95485158 5.00390625 142.1484375 C1.4386759 143.66348665 -2.16157649 143.75629057 -6 144 C-8.01914526 140.64588889 -8.23761322 138.12754455 -8.20254517 134.24200439 C-8.19688034 133.06693832 -8.19121552 131.89187225 -8.18537903 130.68119812 C-8.16056709 128.75314079 -8.16056709 128.75314079 -8.13525391 126.78613281 C-8.12482523 125.41610845 -8.11529047 124.04607703 -8.10658264 122.67604065 C-8.0804259 118.959334 -8.04175905 115.24285013 -8.00085878 111.5262804 C-7.960228 107.64125687 -7.93108438 103.75614766 -7.90072632 99.87103271 C-7.84150049 92.51518166 -7.77193227 85.15946616 -7.69865549 77.80374312 C-7.61573067 69.42902703 -7.54432446 61.05422515 -7.47388959 52.67939615 C-7.3287504 35.45280313 -7.16913362 18.2263738 -7 1 C-4.48718205 -0.25640898 -2.78302919 -0.20872719 0 0 Z " fill="#F6F6F6" transform="translate(223,258)"/>
<path d="M0 0 C3.96 0.495 3.96 0.495 8 1 C8.95779967 4.7117312 8.97662454 7.13153326 7.91796875 10.8046875 C7.5168689 12.23784302 7.5168689 12.23784302 7.10766602 13.69995117 C6.65218384 15.27160034 6.65218384 15.27160034 6.1875 16.875 C5.53128814 19.22194029 4.87781712 21.56964804 4.2265625 23.91796875 C4.05022781 24.55042007 3.87389313 25.1828714 3.69221497 25.83448792 C1.35532465 34.25227962 -0.78204945 42.72184051 -2.9375 51.1875 C-3.79120446 54.53657634 -4.64544053 57.88551673 -5.5 61.234375 C-5.81464706 62.46819664 -5.81464706 62.46819664 -6.13565063 63.72694397 C-7.50787889 69.09936085 -8.90229901 74.46556026 -10.3125 79.828125 C-14.74124395 96.6805636 -14.74124395 96.6805636 -18.15625 113.76171875 C-20.54349694 126.65219639 -24.40133639 139.40467738 -28 152 C-121.06 152 -214.12 152 -310 152 C-310 151.34 -310 150.68 -310 150 C-217.6 150 -125.2 150 -30 150 C-29.34 146.7 -28.68 143.4 -28 140 C-27.29646532 137.05497112 -26.57776322 134.12043065 -25.828125 131.1875 C-25.52077423 129.96945679 -25.52077423 129.96945679 -25.20721436 128.72680664 C-24.34692607 125.31757939 -23.48117163 121.90974926 -22.61523438 118.50195312 C-20.03033104 108.31439294 -17.55139553 98.11262339 -15.22265625 87.86328125 C-11.679416 72.32161125 -7.71783447 56.88900603 -3.76574707 41.44750977 C-2.2231892 35.41860617 -0.68520434 29.38853623 0.85165977 23.35817909 C1.38272989 21.27672258 1.91558681 19.19572982 2.44868469 17.11479187 C2.93005135 15.22915276 2.93005135 15.22915276 3.42114258 13.30541992 C3.70282791 12.2046965 3.98451324 11.10397308 4.2747345 9.96989441 C4.92128462 7.32233211 5.48989147 4.67676548 6 2 C3.69 2.33 1.38 2.66 -1 3 C-0.67 2.01 -0.34 1.02 0 0 Z " fill="#404040" transform="translate(350,266)"/>
<path d="M0 0 C8.89148141 3.7746855 16.25087745 13.00840217 22.5 20.1875 C22.99177734 20.74469727 23.48355469 21.30189453 23.99023438 21.87597656 C39.86129309 40.56004361 42.73630015 68.54356779 41 92 C39.16837584 108.3625092 33.44693696 124.14895621 23 137 C22.32195312 137.84046875 21.64390625 138.6809375 20.9453125 139.546875 C15.63719884 145.78060279 9.81719014 150.50065451 3 155 C2.22140625 155.53367187 1.4428125 156.06734375 0.640625 156.6171875 C-17.2756984 168.22071239 -37.90918995 170.33099067 -58.67504883 171.56298828 C-61.85261662 171.7523912 -65.02873693 171.95908542 -68.20507812 172.16796875 C-70.22649983 172.29526998 -72.24798242 172.42160882 -74.26953125 172.546875 C-75.21834671 172.60824646 -76.16716217 172.66961792 -77.14472961 172.73284912 C-78.45331184 172.80853119 -78.45331184 172.80853119 -79.78833008 172.88574219 C-80.55583084 172.93220886 -81.3233316 172.97867554 -82.11408997 173.02655029 C-84 173 -84 173 -86 172 C-86 171.34 -86 170.68 -86 170 C-84.70304199 169.97812622 -84.70304199 169.97812622 -83.37988281 169.95581055 C-48.4210296 169.29888123 -12.34188796 166.78843475 14.5859375 141.5703125 C26.51135514 128.87302317 32.39112255 113.7303857 36 97 C36.26369385 95.83259277 36.26369385 95.83259277 36.53271484 94.64160156 C40.80132265 70.51080924 35.21986438 45.49094111 21.75 25.25 C17.71652608 19.69276927 13.24850339 14.65354197 8.53125 9.6796875 C5.56874395 6.54345424 2.77587879 3.30104505 0 0 Z " fill="#0A0A0A" transform="translate(416,246)"/>
<path d="M0 0 C3.16355525 0.00465253 6.32672801 -0.00238466 9.49023438 -0.02050781 C53.22373965 -0.26837261 53.22373965 -0.26837261 68.17456055 6.56567383 C68.8692041 6.86723389 69.56384766 7.16879395 70.27954102 7.47949219 C75.87466126 10.00943108 80.49391815 13.19620996 85.04956055 17.31567383 C85.92741211 17.96729492 85.92741211 17.96729492 86.82299805 18.63208008 C92.9842205 23.30178488 96.86854515 29.92564122 101.04956055 36.31567383 C100.71956055 36.97567383 100.38956055 37.63567383 100.04956055 38.31567383 C99.25291992 37.2115918 99.25291992 37.2115918 98.44018555 36.08520508 C97.7337793 35.10938477 97.02737305 34.13356445 96.29956055 33.12817383 C95.6034668 32.16524414 94.90737305 31.20231445 94.19018555 30.21020508 C83.21895523 15.37501956 69.06198623 7.54823525 50.98706055 4.62817383 C18.82482765 -0.14378217 -40.16133679 -6.00149039 -68.95043945 11.31567383 C-72.27959189 14.30302416 -74.53180512 17.05977083 -75.95043945 21.31567383 C-76.04185584 23.30711839 -76.07238198 25.30154876 -76.07069397 27.29508972 C-76.07206863 28.54450851 -76.0734433 29.79392731 -76.07485962 31.08120728 C-76.07132048 32.46820092 -76.06768567 33.85519433 -76.06396484 35.2421875 C-76.06368281 36.70073952 -76.06384102 38.15929169 -76.06440735 39.61784363 C-76.0646947 43.58036192 -76.05880799 47.54285005 -76.05183339 51.50536132 C-76.04558953 55.64536242 -76.04499523 59.78536418 -76.04380798 63.92536926 C-76.04069772 71.7663712 -76.03248842 79.60735922 -76.02245849 87.44835502 C-76.01128791 96.37449227 -76.00578452 105.30063017 -76.00076306 114.22677267 C-75.99030557 132.58974761 -75.97271201 150.9527096 -75.95043945 169.31567383 C-76.94043945 169.31567383 -77.93043945 169.31567383 -78.95043945 169.31567383 C-79.0439569 150.1570807 -79.11445495 130.99853401 -79.15768814 111.83975983 C-79.17829727 102.94363262 -79.20638626 94.0476474 -79.25219727 85.15161133 C-79.29211562 77.39615962 -79.31788425 69.64081075 -79.32679343 61.88525915 C-79.33199975 57.78021352 -79.34420183 53.67546205 -79.37335968 49.57051086 C-79.40060797 45.70288118 -79.40886561 41.83566548 -79.40287018 37.96794891 C-79.40396623 36.55223589 -79.41186424 35.13650832 -79.42726135 33.7208786 C-79.52649964 24.1220242 -78.93354465 17.36075287 -72.13793945 10.12817383 C-53.52810097 -4.22016803 -22.10368792 -0.03516119 0 0 Z " fill="#242424" transform="translate(210.950439453125,45.684326171875)"/>
<path d="M0 0 C8.58975357 -0.04672951 17.17945235 -0.08207244 25.76930237 -0.10362434 C29.75965933 -0.11397798 33.74992813 -0.12797931 37.74023438 -0.15087891 C41.60469403 -0.17291271 45.46906993 -0.18463155 49.33358765 -0.18975449 C50.79407059 -0.19339635 52.25454995 -0.20050413 53.71499634 -0.21146011 C88.65930687 -0.46272543 88.65930687 -0.46272543 98.85546875 8.66015625 C99.23316406 9.10230469 99.61085938 9.54445312 100 10 C98.14375 9.3503125 98.14375 9.3503125 96.25 8.6875 C82.4750031 4.11029631 69.54142341 2.84680698 55.125 2.68359375 C53.5894316 2.66299047 52.05386844 2.64199319 50.51831055 2.62062073 C46.50055213 2.56574815 42.48274553 2.51618718 38.46490479 2.46777344 C34.35546645 2.41730219 30.24609703 2.36175065 26.13671875 2.30664062 C18.09120432 2.19948569 10.04563176 2.09794824 2 2 C2.06059475 23.34070692 2.13813726 44.6812928 2.23571491 66.02186394 C2.28063174 75.93123179 2.32005589 85.84056403 2.34643555 95.75 C2.36944893 104.38962676 2.40288426 113.02914043 2.44870156 121.66867745 C2.47258874 126.24092594 2.49134701 130.81306275 2.49761391 135.38537216 C2.50368518 139.69460696 2.52375842 144.00355617 2.55427551 148.31268501 C2.56302311 149.88877055 2.56678516 151.46489346 2.56500816 153.04100227 C2.55853601 161.43506572 2.86463266 169.10058279 6 177 C2.07603444 173.7300287 1.14385311 170.9193459 0 166 C-0.24609566 162.54618168 -0.24609566 162.54618168 -0.24050903 158.85621643 C-0.24221788 158.17236576 -0.24392673 157.4885151 -0.24568737 156.78394169 C-0.24895979 154.511532 -0.23801613 152.23942311 -0.22705078 149.96704102 C-0.22648618 148.33056139 -0.22680418 146.69408126 -0.22793579 145.05760193 C-0.22850839 140.62836095 -0.21676904 136.19922883 -0.20278788 131.77001309 C-0.19026511 127.13622674 -0.1891088 122.50243775 -0.18673706 117.86863708 C-0.18052684 109.0998527 -0.1641222 100.33111832 -0.14403808 91.56235594 C-0.12166485 81.57690089 -0.11068207 71.59144343 -0.10064721 61.60596955 C-0.07975558 41.07061848 -0.04458849 20.53531239 0 0 Z " fill="#2A2A2A" transform="translate(132,221)"/>
<path d="M0 0 C2.375 0.6875 2.375 0.6875 3.375 1.6875 C3.4742121 3.89787328 3.50132412 6.1114828 3.50198364 8.32408142 C3.50354363 9.02589572 3.50510362 9.72771002 3.50671089 10.45079142 C3.51072324 12.81999838 3.50753033 15.18914209 3.50439453 17.55834961 C3.50574848 19.24981219 3.50752838 20.94127448 3.50970459 22.63273621 C3.51428003 27.24010966 3.51248882 31.84746083 3.5093255 36.4548347 C3.50680206 41.26656707 3.50913944 46.07829747 3.51071167 50.89002991 C3.51253359 58.97315821 3.51012667 67.05627738 3.50537109 75.1394043 C3.49993027 84.49553405 3.50168974 93.85164202 3.5071975 103.20777124 C3.51173019 111.22729108 3.51237835 119.24680435 3.50975883 127.26632506 C3.50819668 132.06185581 3.50800056 136.85737631 3.51129532 141.65290642 C3.51417623 146.16145794 3.51219425 150.66998127 3.50640106 155.17852974 C3.50507457 156.8370115 3.50546571 158.49549561 3.50766373 160.15397644 C3.51037962 162.41066171 3.50698866 164.66725556 3.50198364 166.92393494 C3.50160662 168.18917968 3.50122959 169.45442442 3.50084114 170.75800991 C3.375 173.6875 3.375 173.6875 2.375 175.6875 C-0.265 175.6875 -2.905 175.6875 -5.625 175.6875 C-7.35552187 171.96362956 -7.82993549 169.25584535 -7.6015625 165.16796875 C-7.55 164.14638672 -7.4984375 163.12480469 -7.4453125 162.07226562 C-7.38085938 161.01716797 -7.31640625 159.96207031 -7.25 158.875 C-7.19328125 157.80056641 -7.1365625 156.72613281 -7.078125 155.61914062 C-6.93707992 152.97454534 -6.78571024 150.33096106 -6.625 147.6875 C-6.295 147.6875 -5.965 147.6875 -5.625 147.6875 C-5.625 156.2675 -5.625 164.8475 -5.625 173.6875 C-3.645 173.6875 -1.665 173.6875 0.375 173.6875 C0.375 116.9275 0.375 60.1675 0.375 1.6875 C-1.605 1.6875 -3.585 1.6875 -5.625 1.6875 C-2.625 -0.3125 -2.625 -0.3125 0 0 Z " fill="#373737" transform="translate(257.625,133.3125)"/>
<path d="M0 0 C3.7353903 2.61550997 5.28625065 5.26559507 6.4140625 9.65234375 C6.87957735 13.75552466 6.38089822 17.29015306 4.6875 21.0625 C0.75702132 24.99297868 -2.10196298 26.23326475 -7.5625 26.375 C-12.63443772 26.30861338 -15.56007343 25.72111591 -19.3125 22.0625 C-22.18178273 17.34206712 -22.7873216 13.55764238 -21.95703125 8.2109375 C-20.67650702 3.9425234 -18.02912957 1.36477071 -14.5 -1.3125 C-9.13804215 -2.84448796 -4.87646844 -2.60437541 0 0 Z M-14.3125 6.0625 C-16.39226712 8.22321467 -16.39226712 8.22321467 -17.3125 11.0625 C-16.73391731 15.1849017 -15.86950722 17.42592033 -13.125 20.5625 C-10.32837748 22.31822369 -10.32837748 22.31822369 -6.8125 22.1875 C-2.28089441 20.73091249 -0.72916816 19.14062752 1.6875 15.0625 C1.75650411 11.06026165 1.31853043 8.9506169 -1 5.6875 C-5.87467222 2.26205466 -9.70737935 2.32861839 -14.3125 6.0625 Z " fill="#E5E5E5" transform="translate(155.3125,431.9375)"/>
<path d="M0 0 C3.37434886 1.66926387 5.00181636 3.40773673 6.96484375 6.59765625 C8.5384459 12.49866433 8.03793384 16.34948849 5.15234375 21.72265625 C2.52593885 24.87434213 0.66328882 26.10662279 -3.40234375 26.68359375 C-9.11084116 26.77251116 -12.65936355 26.403269 -17.03515625 22.34765625 C-19.65270348 18.50858698 -20.63693213 15.06141788 -20.45703125 10.375 C-19.69755057 6.7252734 -17.67968234 3.92258955 -15.03515625 1.34765625 C-10.37448983 -1.52339083 -5.17324127 -1.65821745 0 0 Z M-13.03515625 6.34765625 C-15.35622616 9.55294326 -15.58921376 12.46925368 -15.03515625 16.34765625 C-12.70166425 19.1817678 -12.70166425 19.1817678 -10.03515625 21.34765625 C-9.70515625 21.67765625 -9.37515625 22.00765625 -9.03515625 22.34765625 C-5.24050457 22.13286465 -2.75464538 21.87780613 0.33984375 19.59765625 C2.22870882 16.98230462 2.88790221 15.57920092 2.96484375 12.34765625 C1.65537874 8.71025343 0.56970018 6.80129857 -2.53515625 4.47265625 C-6.99631471 2.46513495 -9.23806282 3.62153789 -13.03515625 6.34765625 Z " fill="#EBEBEB" transform="translate(420.03515625,431.65234375)"/>
<path d="M0 0 C3.99291281 3.64059698 6.79698933 7.53398828 9.66796875 12.109375 C10.86988216 14.13227619 10.86988216 14.13227619 13 15 C13 10.71 13 6.42 13 2 C14.32 1.67 15.64 1.34 17 1 C18 2 18 2 18.11352539 4.50024414 C18.10828857 5.58426514 18.10305176 6.66828613 18.09765625 7.78515625 C18.09443359 8.95498047 18.09121094 10.12480469 18.08789062 11.33007812 C18.07951172 12.56177734 18.07113281 13.79347656 18.0625 15.0625 C18.05798828 16.29806641 18.05347656 17.53363281 18.04882812 18.80664062 C18.03699608 21.87114117 18.02051173 24.93554721 18 28 C15.59375 27.66796875 15.59375 27.66796875 13 27 C11.5 24.3125 11.5 24.3125 10 21 C8.42882162 18.89718422 6.73752458 16.9723252 5 15 C4.93941406 15.77085937 4.87882813 16.54171875 4.81640625 17.3359375 C4.69072266 18.84027344 4.69072266 18.84027344 4.5625 20.375 C4.48128906 21.37273437 4.40007812 22.37046875 4.31640625 23.3984375 C4 26 4 26 3 28 C1.35 27.67 -0.3 27.34 -2 27 C-2.05784708 22.87505849 -2.09354407 18.75022056 -2.125 14.625 C-2.14175781 13.449375 -2.15851563 12.27375 -2.17578125 11.0625 C-2.18222656 9.94101562 -2.18867188 8.81953125 -2.1953125 7.6640625 C-2.20578613 6.62717285 -2.21625977 5.5902832 -2.22705078 4.52197266 C-2 2 -2 2 0 0 Z " fill="#818181" transform="translate(175,430)"/>
<path d="M0 0 C4.84716797 0.79101562 4.84716797 0.79101562 6.22265625 2.671875 C6.49980469 3.35765625 6.77695312 4.0434375 7.0625 4.75 C8.62559235 8.29726264 10.42890842 11.06160963 13 14 C13.33 13.67 13.66 13.34 14 13 C13.99095847 10.18356411 13.86690826 7.3799599 13.7421875 4.56640625 C13.82726562 3.71949219 13.91234375 2.87257813 14 2 C14.99 1.34 15.98 0.68 17 0 C21.80905913 7.21358869 18.95538668 19.64036653 18 28 C17.01 28 16.02 28 15 28 C13.71875 26.390625 13.71875 26.390625 12.5 24.25 C11.13728309 21.91979526 9.8285731 19.77537165 8.1875 17.625 C7 16 7 16 7 14 C6.34 14 5.68 14 5 14 C5 18.29 5 22.58 5 27 C3.68 27.33 2.36 27.66 1 28 C0 27 0 27 -0.11352539 24.40795898 C-0.10828857 23.28204346 -0.10305176 22.15612793 -0.09765625 20.99609375 C-0.09443359 19.78115234 -0.09121094 18.56621094 -0.08789062 17.31445312 C-0.07951172 16.03505859 -0.07113281 14.75566406 -0.0625 13.4375 C-0.05798828 12.15423828 -0.05347656 10.87097656 -0.04882812 9.54882812 C-0.03699545 6.36583978 -0.02051068 3.18294238 0 0 Z " fill="#686868" transform="translate(440,430)"/>
<path d="M0 0 C2.5 1.3125 2.5 1.3125 4 3 C4 4.32 4 5.64 4 7 C1.45539052 6.4910781 -1.08754715 5.9812399 -3.625 5.4375 C-6.08923328 4.90941879 -6.08923328 4.90941879 -9 5 C-8.74324087 7.49505992 -8.74324087 7.49505992 -7 10 C-4.49424885 10.95539905 -2.03168249 11.56908106 0.58984375 12.12890625 C3.55199844 13.19950673 4.49139294 14.26345697 6 17 C5.88236141 20.35269975 5.77688858 22.89600043 3.8125 25.6875 C-0.04520486 28.48101041 -5.47834256 27.57891841 -10 27 C-13.25 25 -13.25 25 -15 23 C-14.67 21.68 -14.34 20.36 -14 19 C-11.13275314 19.57344937 -10.1385485 19.8614515 -8 22 C-4.41656024 22.16677282 -4.41656024 22.16677282 -1 22 C-1 20.68 -1 19.36 -1 18 C-2.03060547 17.63648438 -2.03060547 17.63648438 -3.08203125 17.265625 C-4.43361328 16.76289063 -4.43361328 16.76289063 -5.8125 16.25 C-6.70582031 15.92515625 -7.59914062 15.6003125 -8.51953125 15.265625 C-11.30109691 13.84636945 -12.48300289 12.71328677 -14 10 C-13.77861795 5.79374114 -13.34955038 3.52432557 -11 0 C-7.15270862 -1.28243046 -3.88352838 -0.88297527 0 0 Z " fill="#B7B7B7" transform="translate(220,431)"/>
<path d="M0 0 C1.32 0.66 2.64 1.32 4 2 C3.979375 3.258125 3.95875 4.51625 3.9375 5.8125 C3.35960015 14.99061921 3.35960015 14.99061921 6 23 C8.31 23 10.62 23 13 23 C13.33 15.74 13.66 8.48 14 1 C15.32 0.67 16.64 0.34 18 0 C20.41748194 2.41748194 19.28171076 8.50686674 19.3125 11.75 C19.34150391 12.75289063 19.37050781 13.75578125 19.40039062 14.7890625 C19.43866897 19.22934999 19.42193896 22.20038141 17.32421875 26.17578125 C14.48024019 28.40794593 13.08050652 28.58996662 9.5 28.4375 C8.5615625 28.41558594 7.623125 28.39367187 6.65625 28.37109375 C3.98488127 27.99788782 2.26376826 27.44572473 0 26 C-1.95066391 22.09867218 -1.48445406 17.29915939 -1.6875 13 C-1.74744141 11.97648437 -1.80738281 10.95296875 -1.86914062 9.8984375 C-1.91619141 8.92132813 -1.96324219 7.94421875 -2.01171875 6.9375 C-2.05772217 6.03902344 -2.10372559 5.14054687 -2.15112305 4.21484375 C-2 2 -2 2 0 0 Z " fill="#EBEBEB" transform="translate(239,430)"/>
<path d="M0 0 C1.67542976 0.28604898 3.34385343 0.61781233 5 1 C5.33 2.98 5.66 4.96 6 7 C7.65 4.69 9.3 2.38 11 0 C12.65 0.33 14.3 0.66 16 1 C14.88026444 4.35920667 13.44248686 6.76984607 11.25 9.5 C9.18037999 12.20725752 9.18037999 12.20725752 9.375 15.5625 C10.72214152 17.58321228 12.09835103 19.30307428 13.6875 21.125 C14.8321875 22.548125 14.8321875 22.548125 16 24 C15.67 24.99 15.34 25.98 15 27 C12.75 26.875 12.75 26.875 10 26 C7.6875 22.9375 7.6875 22.9375 6 20 C5.34 22.31 4.68 24.62 4 27 C2.35 26.67 0.7 26.34 -1 26 C-1.02886751 21.85418113 -1.04675327 17.70838784 -1.0625 13.5625 C-1.07087891 12.37849609 -1.07925781 11.19449219 -1.08789062 9.97460938 C-1.09111328 8.84990234 -1.09433594 7.72519531 -1.09765625 6.56640625 C-1.10289307 5.52427979 -1.10812988 4.48215332 -1.11352539 3.40844727 C-1 1 -1 1 0 0 Z " fill="#919191" transform="translate(107,431)"/>
<path d="M0 0 C2.45650427 2.20736325 3.72794247 4.20460065 5.0078125 7.23828125 C5.35457031 8.05876953 5.70132812 8.87925781 6.05859375 9.72460938 C6.41050781 10.57861328 6.76242187 11.43261719 7.125 12.3125 C7.48464844 13.15490234 7.84429687 13.99730469 8.21484375 14.86523438 C10.04064184 19.23826013 11.4880543 23.24511035 12 28 C9.6875 27.8125 9.6875 27.8125 7 27 C6.54625 26.154375 6.0925 25.30875 5.625 24.4375 C4.15467961 21.60961813 4.15467961 21.60961813 0.5625 21.3125 C-3.25131995 21.62864889 -3.25131995 21.62864889 -5.1875 25 C-5.785625 25.99 -6.38375 26.98 -7 28 C-8.32 28 -9.64 28 -11 28 C-10.42673972 21.90910952 -7.93361856 16.72153353 -5.5 11.1875 C-5.08363281 10.22134766 -4.66726563 9.25519531 -4.23828125 8.25976562 C-1.1509802 1.1509802 -1.1509802 1.1509802 0 0 Z M0 12 C-0.33 13.32 -0.66 14.64 -1 16 C-0.01 16.33 0.98 16.66 2 17 C2.33 16.01 2.66 15.02 3 14 C2.67 13.34 2.34 12.68 2 12 C1.34 12 0.68 12 0 12 Z " fill="#E8E8E8" transform="translate(332,430)"/>
<path d="M0 0 C0.66 0 1.32 0 2 0 C2.04669547 15.46384495 2.0819768 30.92768463 2.10362434 46.39158344 C2.11394229 53.57154508 2.12801249 60.75146294 2.15087891 67.93139648 C2.17079696 74.18853557 2.18371267 80.44564295 2.18817699 86.70281285 C2.19078707 90.01675216 2.1979767 93.33057948 2.21146011 96.64449501 C2.22590873 100.34158403 2.22798071 104.03848314 2.22705078 107.7355957 C2.23783661 109.38852379 2.23783661 109.38852379 2.24884033 111.07484436 C2.246091 112.08025269 2.24334167 113.08566101 2.24050903 114.12153625 C2.24235262 114.9963178 2.24419621 115.87109934 2.24609566 116.77238941 C2 119 2 119 0 122 C-3.125 122.1875 -3.125 122.1875 -6 122 C-6.33 121.01 -6.66 120.02 -7 119 C-4.69 119 -2.38 119 0 119 C0 79.73 0 40.46 0 0 Z " fill="#000000" transform="translate(434,42)"/>
<path d="M0 0 C2.64 0.33 5.28 0.66 8 1 C8.95779967 4.7117312 8.97662454 7.13153326 7.91796875 10.8046875 C7.65040771 11.76068848 7.38284668 12.71668945 7.10717773 13.70166016 C6.65193726 15.27246338 6.65193726 15.27246338 6.1875 16.875 C5.53390092 19.21282818 4.88303646 21.551422 4.234375 23.890625 C4.05845322 24.52163116 3.88253143 25.15263733 3.70127869 25.80276489 C1.55435752 33.53615298 -0.42903884 41.31144855 -2.41436768 49.08758545 C-3.06112915 51.61963317 -3.71075205 54.15093339 -4.36083984 56.68212891 C-6.24196661 64.01973347 -8.10123735 71.36030637 -9.8671875 78.7265625 C-10.27312134 80.40758057 -10.27312134 80.40758057 -10.68725586 82.12255859 C-11.1715697 84.1414523 -11.6469989 86.16250772 -12.11157227 88.18603516 C-12.32096436 89.0579248 -12.53035645 89.92981445 -12.74609375 90.828125 C-12.91810303 91.5696582 -13.0901123 92.31119141 -13.26733398 93.07519531 C-14.11592747 95.30455588 -15.21704148 96.44576722 -17 98 C-16.39399689 92.3653746 -15.3920275 87.03409641 -13.97460938 81.55200195 C-13.77124466 80.74931885 -13.56787994 79.94663574 -13.35835266 79.11962891 C-12.69131628 76.49134563 -12.01753729 73.86484114 -11.34375 71.23828125 C-10.87629123 69.40092936 -10.40929824 67.56345891 -9.94274902 65.72587585 C-8.71761778 60.90500511 -7.48692724 56.08557186 -6.25482178 51.26647949 C-4.28145822 43.54376184 -2.31704899 35.81876032 -0.35176086 28.0939846 C0.33416472 25.4009148 1.0221714 22.70838369 1.71057129 20.01594543 C2.13194527 18.3639089 2.55329273 16.71186561 2.97460938 15.05981445 C3.16580856 14.31424789 3.35700775 13.56868134 3.55400085 12.80052185 C4.46681718 9.21551166 5.31971858 5.63677582 6 2 C3.69 2.33 1.38 2.66 -1 3 C-0.67 2.01 -0.34 1.02 0 0 Z " fill="#0C0C0C" transform="translate(350,266)"/>
<path d="M0 0 C0.71724243 0.53874756 0.71724243 0.53874756 1.44897461 1.08837891 C17.40551322 13.06592842 33.56913655 24.68022968 50 36 C51.60157113 37.10545625 53.2031342 38.21092417 54.8046875 39.31640625 C60.51090336 43.24991553 66.22514916 47.1676789 72 51 C72.33 50.67 72.66 50.34 73 50 C74.99964982 49.91241997 77.0023611 49.89303424 79.00390625 49.90234375 C80.21884766 49.90556641 81.43378906 49.90878906 82.68554688 49.91210938 C83.96494141 49.92048828 85.24433594 49.92886719 86.5625 49.9375 C87.84576172 49.94201172 89.12902344 49.94652344 90.45117188 49.95117188 C93.63416022 49.96300455 96.81705762 49.97948932 100 50 C100 50.99 100 51.98 100 53 C99.36497559 52.99476318 98.72995117 52.98952637 98.07568359 52.98413086 C95.17546595 52.96323744 92.2752642 52.95030066 89.375 52.9375 C88.37597656 52.92912109 87.37695312 52.92074219 86.34765625 52.91210938 C80.50512112 52.86008326 80.50512112 52.86008326 74.76953125 53.81640625 C70.33167164 54.1105944 67.74817259 51.59357574 64.3125 49 C62.87873282 47.96328105 61.44383578 46.92812288 60.0078125 45.89453125 C59.3159082 45.39002441 58.62400391 44.88551758 57.91113281 44.36572266 C55.5686501 42.69175124 53.14866641 41.18040188 50.6875 39.6875 C43.00532844 34.86461202 35.82420192 29.31484376 28.55664062 23.89794922 C25.97847294 21.98401916 23.3897222 20.08539249 20.796875 18.19140625 C19.95125 17.57273682 19.105625 16.95406738 18.234375 16.31665039 C16.62634874 15.1408128 15.01705482 13.96670603 13.40625 12.79467773 C3.08803697 5.22851432 3.08803697 5.22851432 0 2 C0 1.34 0 0.68 0 0 Z " fill="#111111" transform="translate(269,208)"/>
<path d="M0 0 C4.95 0 9.9 0 15 0 C15.66 1.32 16.32 2.64 17 4 C16.67 4.66 16.34 5.32 16 6 C14.35 6.33 12.7 6.66 11 7 C10.67 13.93 10.34 20.86 10 28 C8.35 28 6.7 28 5 28 C4.21311555 25.22276075 3.88050076 22.77389923 3.90234375 19.890625 C3.90556641 19.13652344 3.90878906 18.38242187 3.91210938 17.60546875 C3.92048828 16.82816406 3.92886719 16.05085938 3.9375 15.25 C3.94201172 14.45722656 3.94652344 13.66445313 3.95117188 12.84765625 C3.96291435 10.89840492 3.98084854 8.94919262 4 7 C1.525 6.01 1.525 6.01 -1 5 C-0.67 3.35 -0.34 1.7 0 0 Z " fill="#030303" transform="translate(54,430)"/>
<path d="M0 0 C1.15371094 -0.01417969 2.30742187 -0.02835937 3.49609375 -0.04296875 C6.5625 0.1875 6.5625 0.1875 9.5625 2.1875 C9.2325 3.5075 8.9025 4.8275 8.5625 6.1875 C6.5825 6.1875 4.6025 6.1875 2.5625 6.1875 C2.61579468 7.08057861 2.61579468 7.08057861 2.67016602 7.99169922 C2.82748794 10.68166774 2.97634562 13.37203917 3.125 16.0625 C3.18107422 16.99964844 3.23714844 17.93679688 3.29492188 18.90234375 C3.34326172 19.79824219 3.39160156 20.69414062 3.44140625 21.6171875 C3.4885376 22.44460449 3.53566895 23.27202148 3.58422852 24.12451172 C3.5625 26.1875 3.5625 26.1875 2.5625 28.1875 C0.9125 27.8575 -0.7375 27.5275 -2.4375 27.1875 C-2.4375 20.5875 -2.4375 13.9875 -2.4375 7.1875 C-4.4175 6.5275 -6.3975 5.8675 -8.4375 5.1875 C-8.4375 3.8675 -8.4375 2.5475 -8.4375 1.1875 C-5.60362485 -0.22943757 -3.15720627 0.0175987 0 0 Z " fill="#939393" transform="translate(302.4375,429.8125)"/>
<path d="M0 0 C0.99 0.495 0.99 0.495 2 1 C2.33438003 3.63066208 2.54137426 6.17708374 2.67578125 8.8203125 C2.77907036 10.47685648 2.88318879 12.1333489 2.98803711 13.78979492 C3.0403952 14.66155365 3.0927533 15.53331238 3.146698 16.43148804 C4.12492447 32.32312182 5.7023514 47.61199078 10 63 C10.28359375 64.09183594 10.5671875 65.18367188 10.859375 66.30859375 C14.14551378 77.48456572 19.71349928 89.11833183 25.87109375 99.00390625 C26.24363281 99.66261719 26.61617187 100.32132812 27 101 C26.67 101.66 26.34 102.32 26 103 C5.51317213 73.04813311 -1.6118403 35.81867334 0 0 Z " fill="#131313" transform="translate(223,259)"/>
<path d="M0 0 C0.70640625 0.05220703 1.4128125 0.10441406 2.140625 0.15820312 C3.88579987 0.28791207 5.63045725 0.42454954 7.375 0.5625 C7.375 1.8825 7.375 3.2025 7.375 4.5625 C5.395 5.2225 3.415 5.8825 1.375 6.5625 C1.375 13.1625 1.375 19.7625 1.375 26.5625 C-0.275 26.8925 -1.925 27.2225 -3.625 27.5625 C-3.625 20.3025 -3.625 13.0425 -3.625 5.5625 C-6.595 5.0675 -6.595 5.0675 -9.625 4.5625 C-9.625 3.2425 -9.625 1.9225 -9.625 0.5625 C-6.5270403 -0.98647985 -3.36283448 -0.26989539 0 0 Z " fill="#DCDCDC" transform="translate(363.625,430.4375)"/>
<path d="M0 0 C8.58 0 17.16 0 26 0 C25.67 1.32 25.34 2.64 25 4 C25 3.34 25 2.68 25 2 C17.74 2 10.48 2 3 2 C2.95101562 4.3409375 2.90203125 6.681875 2.8515625 9.09375 C2.79718917 11.4207879 2.74002663 13.74774228 2.68261719 16.07470703 C2.64488784 17.66285696 2.60995026 19.25107626 2.578125 20.83935547 C2.35839778 31.68152039 1.56507019 42.26703923 0 53 C-1.98 53.495 -1.98 53.495 -4 54 C-4.66 52.68 -5.32 51.36 -6 50 C-5.01 50 -4.02 50 -3 50 C0.52291749 34.00008308 -0.49724655 16.34565797 0 0 Z " fill="#000000" transform="translate(242,126)"/>
<path d="M0 0 C1.65 0.33 3.3 0.66 5 1 C5.33 1.99 5.66 2.98 6 4 C4.890625 6.1640625 4.890625 6.1640625 3.25 8.625 C-5.4194786 22.42375249 -5.29047886 37.46601122 -1.98046875 53.03125 C0.47152385 63.52018829 5.11280284 72.91005778 10.875 81.9375 C11.24625 82.618125 11.6175 83.29875 12 84 C11.67 84.66 11.34 85.32 11 86 C5.31170586 77.62246876 0.54282779 69.54713833 -3 60 C-3.35191406 59.18660156 -3.70382812 58.37320313 -4.06640625 57.53515625 C-6.63057863 50.57219444 -6.25296183 43.12775701 -6.3125 35.8125 C-6.34150391 34.64396484 -6.37050781 33.47542969 -6.40039062 32.27148438 C-6.47955819 21.35245045 -3.51628181 13.25947304 2 4 C2 3.34 2 2.68 2 2 C1.34 1.34 0.68 0.68 0 0 Z " fill="#0C0C0C" transform="translate(279,63)"/>
<path d="M0 0 C2.41927975 0.9520951 3.72676758 1.49102045 4.97886658 3.82344055 C5.2036116 4.56144394 5.42835663 5.29944733 5.65991211 6.05981445 C5.92376205 6.89861649 6.187612 7.73741852 6.4594574 8.60163879 C6.72935989 9.5129808 6.99926239 10.42432281 7.27734375 11.36328125 C7.57057022 12.30624557 7.86379669 13.2492099 8.16590881 14.2207489 C9.10427619 17.2470839 10.02172748 20.27925923 10.9375 23.3125 C12.14835182 27.26897354 13.36762277 31.22280657 14.58984375 35.17578125 C14.88405212 36.1317923 15.1782605 37.08780334 15.48138428 38.07278442 C17.39466835 44.23254573 19.52853526 50.22107572 21.92114258 56.21166992 C23.670132 60.73197049 25.04334892 65.3426711 26.375 70 C26.64699219 70.90105469 26.91898437 71.80210938 27.19921875 72.73046875 C27.45058594 73.60316406 27.70195312 74.47585937 27.9609375 75.375 C28.29810791 76.53128906 28.29810791 76.53128906 28.64208984 77.7109375 C29.05991054 80.3831659 28.66536289 82.39605602 28 85 C24.535 84.505 24.535 84.505 21 84 C21 83.34 21 82.68 21 82 C23.97 81.505 23.97 81.505 27 81 C26.67649063 80.02947189 26.35298126 79.05894379 26.01966858 78.05900574 C17.34644572 52.03933716 8.67322286 26.01966858 0 0 Z " fill="#080808" transform="translate(307,38)"/>
<path d="M0 0 C1.98 0.495 1.98 0.495 4 1 C4.33 8.26 4.66 15.52 5 23 C7.64 23.33 10.28 23.66 13 24 C12.67 25.32 12.34 26.64 12 28 C10.02090602 28.02686553 8.04171029 28.04633375 6.0625 28.0625 C4.96035156 28.07410156 3.85820312 28.08570313 2.72265625 28.09765625 C0 28 0 28 -1 27 C-1.09971786 25.08541718 -1.13080589 23.16717683 -1.1328125 21.25 C-1.13410156 20.0846875 -1.13539063 18.919375 -1.13671875 17.71875 C-1.13285156 16.4915625 -1.12898438 15.264375 -1.125 14 C-1.12886719 12.7728125 -1.13273437 11.545625 -1.13671875 10.28125 C-1.13542969 9.1159375 -1.13414062 7.950625 -1.1328125 6.75 C-1.13168457 5.67234375 -1.13055664 4.5946875 -1.12939453 3.484375 C-1 1 -1 1 0 0 Z " fill="#969696" transform="translate(272,430)"/>
<path d="M0 0 C0.33 0.66 0.66 1.32 1 2 C2.1859375 1.96519531 3.371875 1.93039063 4.59375 1.89453125 C20.22182149 1.57459671 33.72981958 3.15653473 48 10 C49.00804687 10.45375 50.01609375 10.9075 51.0546875 11.375 C58.21419603 14.72703453 64.04579443 18.8289783 70 24 C70.73347656 24.61230469 71.46695313 25.22460938 72.22265625 25.85546875 C76.27535854 29.2870092 79.7325075 32.81352524 83 37 C82.505 37.99 82.505 37.99 82 39 C81.33097656 38.27296875 80.66195312 37.5459375 79.97265625 36.796875 C74.18167565 30.67298494 68.14978172 25.35469827 61.25 20.5 C60.20598022 19.76281738 60.20598022 19.76281738 59.14086914 19.01074219 C51.95805641 14.07654345 44.82027307 10.67181441 36.4375 8.3125 C35.72142578 8.10044922 35.00535156 7.88839844 34.26757812 7.66992188 C26.42282436 5.4071494 18.68579064 4.79424639 10.5625 4.4375 C9.64017578 4.39431641 8.71785156 4.35113281 7.76757812 4.30664062 C5.51183837 4.20145069 3.25600501 4.09930893 1 4 C0.67 2.68 0.34 1.36 0 0 Z " fill="#161616" transform="translate(320,46)"/>
<path d="M0 0 C2.46800047 1.15173355 4.04783565 2.04783565 6 4 C5.82617188 5.99780273 5.82617188 5.99780273 5 8 C2.49213193 9.58567872 0.17933812 10.83896687 -2.5 12.0625 C-3.25667969 12.41538086 -4.01335937 12.76826172 -4.79296875 13.13183594 C-10.82769726 15.79758998 -16.65974417 17.13995728 -23.16601562 18.05444336 C-27.95810099 18.73766359 -31.71776395 19.95485158 -35.99609375 22.1484375 C-39.5613241 23.66348665 -43.16157649 23.75629057 -47 24 C-47.66 22.68 -48.32 21.36 -49 20 C-48.3709375 20.04640625 -47.741875 20.0928125 -47.09375 20.140625 C-42.6418904 20.32835402 -39.20520365 20.44515449 -35.3125 18.125 C-31.58841103 15.96621536 -28.46241988 15.65577515 -24.1875 15.3125 C-14.17932974 14.2510274 -5.80389491 9.64384406 3 5 C2.01 3.35 1.02 1.7 0 0 Z " fill="#030303" transform="translate(264,378)"/>
<path d="M0 0 C1.98 0.495 1.98 0.495 4 1 C4 9.58 4 18.16 4 27 C2.35 26.67 0.7 26.34 -1 26 C-1.02892857 22.04168191 -1.04677427 18.08339083 -1.0625 14.125 C-1.07087891 12.99707031 -1.07925781 11.86914062 -1.08789062 10.70703125 C-1.09111328 9.63066406 -1.09433594 8.55429687 -1.09765625 7.4453125 C-1.10289307 6.45031738 -1.10812988 5.45532227 -1.11352539 4.43017578 C-1 2 -1 2 0 0 Z " fill="#303030" transform="translate(383,431)"/>
<path d="M0 0 C1.40774378 2.81548756 0.64774263 4.37891101 -0.0390625 7.43359375 C-0.2875293 8.54895508 -0.53599609 9.66431641 -0.79199219 10.81347656 C-1.06688477 12.0094043 -1.34177734 13.20533203 -1.625 14.4375 C-1.89989258 15.65276367 -2.17478516 16.86802734 -2.45800781 18.12011719 C-5.29046072 30.51169031 -8.48306472 42.78664293 -12 55 C-13.32 54.67 -14.64 54.34 -16 54 C-15.34 54 -14.68 54 -14 54 C-13.82778931 52.33191284 -13.82778931 52.33191284 -13.65209961 50.63012695 C-13.02239939 45.61816412 -11.82477509 40.80410496 -10.56640625 35.91796875 C-10.32840805 34.98197342 -10.09040985 34.04597809 -9.84519958 33.08161926 C-9.34414697 31.11702093 -8.84061335 29.15305384 -8.3347168 27.18969727 C-7.56087284 24.18117397 -6.79854667 21.16988734 -6.03710938 18.15820312 C-5.54756409 16.24461525 -5.05735309 14.33119753 -4.56640625 12.41796875 C-4.3392543 11.51797653 -4.11210236 10.61798431 -3.87806702 9.6907196 C-3.6612175 8.8558754 -3.44436798 8.02103119 -3.22094727 7.16088867 C-3.03299088 6.42778976 -2.84503448 5.69469086 -2.65138245 4.93937683 C-2 3 -2 3 0 0 Z " fill="#050505" transform="translate(334,363)"/>
<path d="M0 0 C0.66 0.66 1.32 1.32 2 2 C-0.64 2 -3.28 2 -6 2 C-5.44570312 2.17015625 -4.89140625 2.3403125 -4.3203125 2.515625 C1.67066895 4.51972556 1.67066895 4.51972556 3.5 7.1875 C3.7475 8.0846875 3.7475 8.0846875 4 9 C3.13375 8.484375 2.2675 7.96875 1.375 7.4375 C-2.45079771 5.80799357 -4.07506853 5.77891021 -8 7 C-10.33030405 8.60710624 -10.89531369 9.69399385 -11.8125 12.375 C-12.0833963 16.16754823 -10.66002148 18.67995704 -9 22 C-11.39489543 21.25675659 -12.70777616 20.52942646 -13.93359375 18.30859375 C-14.67219923 16.55926499 -15.34049685 14.78065851 -16 13 C-16.66 14.32 -17.32 15.64 -18 17 C-17.8361264 10.2960802 -16.90901189 6.68068575 -12 2 C-8.34509365 -0.77268758 -4.40585159 -0.28424849 0 0 Z " fill="#9B9B9B" transform="translate(151,430)"/>
<path d="M0 0 C1.32 0 2.64 0 4 0 C5.32607729 5.02014974 5.1470587 10.03679364 5.125 15.1875 C5.12886719 16.10208984 5.13273437 17.01667969 5.13671875 17.95898438 C5.13542969 18.83232422 5.13414063 19.70566406 5.1328125 20.60546875 C5.13168457 21.40106201 5.13055664 22.19665527 5.12939453 23.01635742 C5 25 5 25 4 27 C2.68 27 1.36 27 0 27 C-0.83088343 23.44986171 -1.07031086 20.33590633 -0.87890625 16.69921875 C-0.83056641 15.72275391 -0.78222656 14.74628906 -0.73242188 13.74023438 C-0.67634766 12.73283203 -0.62027344 11.72542969 -0.5625 10.6875 C-0.51029297 9.66076172 -0.45808594 8.63402344 -0.40429688 7.57617188 C-0.27507334 5.05043913 -0.14012709 2.52514739 0 0 Z " fill="#8E8E8E" transform="translate(37,431)"/>
<path d="M0 0 C3.09438268 0.91995161 4.71026629 1.63783286 6.75 4.1875 C8.83789695 8.88526814 9.23374148 12.62092529 8.375 17.6875 C6.56783988 22.04111301 4.14943555 23.92528223 0 26 C-5.01524102 26.49988513 -10.20269608 27.00045732 -14.625 24.25 C-16.94013421 22.05671496 -17.77626111 21.1323445 -18 18 C-17.34 18.33 -16.68 18.66 -16 19 C-16 19.66 -16 20.32 -16 21 C-11.42365996 23.36198196 -7.03717626 23.59422225 -2 23 C1.89361731 21.34314157 3.42108941 19.86033207 5 16 C5.58735167 11.17162374 5.53333254 6.26666533 3 2 C2.01 1.67 1.02 1.34 0 1 C0 0.67 0 0.34 0 0 Z " fill="#060606" transform="translate(153,432)"/>
<path d="M0 0 C0.99 0 1.98 0 3 0 C1.76351272 2.81019835 0.21328565 4.99373797 -1.6875 7.375 C-3.78345432 10.2125054 -4.01577401 10.71080979 -3.8125 14.4375 C-3.544375 15.283125 -3.27625 16.12875 -3 17 C-4.32 16.67 -5.64 16.34 -7 16 C-7.33 18.97 -7.66 21.94 -8 25 C-8.66 25 -9.32 25 -10 25 C-10 17.08 -10 9.16 -10 1 C-9.34 1 -8.68 1 -8 1 C-7.67 3.64 -7.34 6.28 -7 9 C-6.01830524 7.87720538 -5.03972702 6.75168527 -4.0625 5.625 C-3.51722656 4.99851562 -2.97195312 4.37203125 -2.41015625 3.7265625 C-0.93041376 2.04367666 -0.93041376 2.04367666 0 0 Z " fill="#E6E6E6" transform="translate(118,431)"/>
<path d="M0 0 C3.53586014 3.17320782 5.58578031 5.16743695 6 10 C5.01 10 4.02 10 3 10 C2.67 15.28 2.34 20.56 2 26 C1.01 26 0.02 26 -1 26 C-1.22515501 22.04243356 -1.42727348 18.08402412 -1.625 14.125 C-1.68945312 12.99707031 -1.75390625 11.86914062 -1.8203125 10.70703125 C-1.871875 9.63066406 -1.9234375 8.55429687 -1.9765625 7.4453125 C-2.02893066 6.45031738 -2.08129883 5.45532227 -2.13525391 4.43017578 C-2 2 -2 2 0 0 Z " fill="#C5C5C5" transform="translate(175,430)"/>
<path d="M0 0 C3.3051074 1.02572299 4.04006555 2.06907854 5.8125 5.125 C7.3770429 9.25986338 7.26426288 12.78863784 6 17 C3.84060125 21.0209494 2.2347228 23.32137114 -2 25 C-6.79185733 25.68003256 -11.41810136 25.80178701 -15.625 23.1875 C-16.800625 22.1046875 -16.800625 22.1046875 -18 21 C-18 20.01 -18 19.02 -18 18 C-17.360625 18.66 -16.72125 19.32 -16.0625 20 C-11.96452368 22.67622944 -8.77430651 22.85585108 -4 22 C0.27403857 19.77561281 0.27403857 19.77561281 3 16 C3.09632897 14.18958207 3.12981533 12.37547247 3.125 10.5625 C3.12757813 9.59441406 3.13015625 8.62632812 3.1328125 7.62890625 C3.11213973 4.88982171 3.11213973 4.88982171 2 2 C1.34 2 0.68 2 0 2 C0 1.34 0 0.68 0 0 Z " fill="#141414" transform="translate(421,433)"/>
<path d="M0 0 C1.32 0.33 2.64 0.66 4 1 C4.11654436 4.5622231 4.1873639 8.12395342 4.25 11.6875 C4.30027344 13.19860352 4.30027344 13.19860352 4.3515625 14.74023438 C4.41042731 19.1992437 4.42961869 22.18292146 2.328125 26.1796875 C-0.51861361 28.40549319 -1.92093264 28.58990534 -5.5 28.4375 C-6.4384375 28.41558594 -7.376875 28.39367187 -8.34375 28.37109375 C-11.01519338 27.9978774 -12.74517766 27.46356588 -15 26 C-15.75 23.875 -15.75 23.875 -16 22 C-15.525625 22.495 -15.05125 22.99 -14.5625 23.5 C-10.89775516 25.64521649 -7.14741985 25.92732803 -3 25 C-0.56437674 23.6992643 -0.56437674 23.6992643 1 21 C1.62888185 17.58914739 1.69666416 14.21198068 1.75 10.75 C1.79447266 9.34621094 1.79447266 9.34621094 1.83984375 7.9140625 C1.91039804 5.60928908 1.96316252 3.30551832 2 1 C1.34 0.67 0.68 0.34 0 0 Z " fill="#121212" transform="translate(254,430)"/>
<path d="M0 0 C2.475 0.495 2.475 0.495 5 1 C5.66 3.31 6.32 5.62 7 8 C5.02 6.35 3.04 4.7 1 3 C1 10.59 1 18.18 1 26 C1.66 26 2.32 26 3 26 C3 20.39 3 14.78 3 9 C4.32 10.32 5.64 11.64 7 13 C6.01 13.495 6.01 13.495 5 14 C5 18.29 5 22.58 5 27 C3.68 27.33 2.36 27.66 1 28 C0 27 0 27 -0.11352539 24.40795898 C-0.10828857 23.28204346 -0.10305176 22.15612793 -0.09765625 20.99609375 C-0.09443359 19.78115234 -0.09121094 18.56621094 -0.08789062 17.31445312 C-0.07951172 16.03505859 -0.07113281 14.75566406 -0.0625 13.4375 C-0.05798828 12.15423828 -0.05347656 10.87097656 -0.04882812 9.54882812 C-0.03699545 6.36583978 -0.02051068 3.18294238 0 0 Z " fill="#080808" transform="translate(440,430)"/>
<path d="M0 0 C0.99 0 1.98 0 3 0 C3.14584064 3.22868746 3.23424106 6.45652365 3.3125 9.6875 C3.3753418 11.05551758 3.3753418 11.05551758 3.43945312 12.45117188 C3.52369814 17.08464785 3.5218717 19.28510726 0.71875 23.125 C-2.71999611 25.49654904 -4.90866173 25.40111159 -9 25 C-9 24.34 -9 23.68 -9 23 C-5.04 22.505 -5.04 22.505 -1 22 C-0.67 14.74 -0.34 7.48 0 0 Z " fill="#DCDCDC" transform="translate(253,431)"/>
<path d="M0 0 C19.80419138 4.99486243 33.45304906 15.85779809 44 33 C43.505 33.99 43.505 33.99 43 35 C42.46890625 34.26394531 41.9378125 33.52789062 41.390625 32.76953125 C40.68421875 31.79371094 39.9778125 30.81789063 39.25 29.8125 C38.55390625 28.84957031 37.8578125 27.88664062 37.140625 26.89453125 C27.23361508 13.49837367 15.44144444 7.22567607 0 2 C0 1.34 0 0.68 0 0 Z " fill="#1C1C1C" transform="translate(268,49)"/>
<path d="M0 0 C21.06690141 -0.33978873 21.06690141 -0.33978873 29.5 7.25 C29.995 7.8275 30.49 8.405 31 9 C30.67 9.66 30.34 10.32 30 11 C29.4225 10.401875 28.845 9.80375 28.25 9.1875 C20.25830792 3.80847649 9.35729934 3.28285555 0 2 C0 1.34 0 0.68 0 0 Z " fill="#0B0B0B" transform="translate(40,45)"/>
<path d="M0 0 C2 2 2 2 2 5 C-0.60919828 6.30459914 -2.58942615 6.1326594 -5.5 6.125 C-6.4796875 6.12757813 -7.459375 6.13015625 -8.46875 6.1328125 C-11 6 -11 6 -13 5 C-12.67 3.68 -12.34 2.36 -12 1 C-3.63741339 -0.31177829 -3.63741339 -0.31177829 0 0 Z " fill="#020202" transform="translate(93,446)"/>
<path d="M0 0 C2.46800047 1.15173355 4.04783565 2.04783565 6 4 C5.85473633 5.99121094 5.85473633 5.99121094 5 8 C3.3894043 9.18847656 3.3894043 9.18847656 1.32421875 10.140625 C0.57849609 10.48867188 -0.16722656 10.83671875 -0.93554688 11.1953125 C-1.71994141 11.54335938 -2.50433594 11.89140625 -3.3125 12.25 C-4.47168945 12.79527344 -4.47168945 12.79527344 -5.65429688 13.3515625 C-9.49405108 15.10801068 -11.66591202 16 -16 16 C-16 15.34 -16 14.68 -16 14 C-9.73 11.03 -3.46 8.06 3 5 C2.01 3.35 1.02 1.7 0 0 Z " fill="#161616" transform="translate(264,378)"/>
<path d="M0 0 C0.66 0.66 1.32 1.32 2 2 C1.84350586 3.99829102 1.84350586 3.99829102 1.27734375 6.44140625 C1.07608887 7.33746582 0.87483398 8.23352539 0.66748047 9.15673828 C0.33707764 10.56415283 0.33707764 10.56415283 0 12 C-0.3947229 13.82157307 -0.78925491 15.6431875 -1.18359375 17.46484375 C-1.59965172 19.28949925 -2.01762729 21.11371854 -2.4375 22.9375 C-2.74397461 24.33452148 -2.74397461 24.33452148 -3.05664062 25.75976562 C-3.26353516 26.65244141 -3.47042969 27.54511719 -3.68359375 28.46484375 C-3.86462646 29.265271 -4.04565918 30.06569824 -4.23217773 30.89038086 C-5.08850382 33.2431674 -6.11714734 34.38431982 -8 36 C-7.30961951 28.29885427 -5.3557448 20.97545698 -3.4375 13.5 C-3.1043777 12.18761161 -2.77169179 10.87511237 -2.43945312 9.5625 C-1.63057679 6.37388605 -0.81731057 3.18646052 0 0 Z " fill="#202020" transform="translate(341,328)"/>
<path d="M0 0 C1.65 0.33 3.3 0.66 5 1 C5.33 1.99 5.66 2.98 6 4 C4.92578125 6.09375 4.92578125 6.09375 3.3125 8.5 C0.38019298 13.11957417 -1.47809478 17.64860342 -3.140625 22.84765625 C-4 25 -4 25 -6 26 C-5.86833582 19.41679095 -3.48310425 14.46807455 -0.43920898 8.74951172 C1.39636256 5.55430953 1.39636256 5.55430953 2 2 C1.34 1.34 0.68 0.68 0 0 Z " fill="#0C0C0C" transform="translate(279,63)"/>
<path d="M0 0 C4.62 0 9.24 0 14 0 C14 0.66 14 1.32 14 2 C12.02 2 10.04 2 8 2 C8 9.26 8 16.52 8 24 C7.34 24 6.68 24 6 24 C5.67 16.74 5.34 9.48 5 2 C3.35 1.67 1.7 1.34 0 1 C0 0.67 0 0.34 0 0 Z " fill="#F5F5F5" transform="translate(54,432)"/>
<path d="M0 0 C8.91 0 17.82 0 27 0 C27 0.99 27 1.98 27 3 C26.36497559 2.99476318 25.72995117 2.98952637 25.07568359 2.98413086 C22.17546595 2.96323744 19.2752642 2.95030066 16.375 2.9375 C15.37597656 2.92912109 14.37695312 2.92074219 13.34765625 2.91210938 C8.44979725 2.8958913 3.81343801 2.95681463 -1 4 C-0.67 2.68 -0.34 1.36 0 0 Z " fill="#050505" transform="translate(342,258)"/>
<path d="M0 0 C3 1.625 3 1.625 5 4 C5.8125 7.25 5.8125 7.25 6 10 C4.87791213 8.31686819 3.77563716 6.61858318 2.75 4.875 C0.31335291 2.26430668 -1.48722804 2.14337845 -5 2 C-7.55733659 2.7814084 -8.62735907 3.51556679 -10.25 5.625 C-11.35953628 9.13853155 -11.12256679 12.32299618 -11 16 C-12.5 15 -12.5 15 -14 13 C-14.62540934 8.15307763 -14.72500351 6.12258608 -12.0625 2 C-7.94690694 -0.68773424 -4.78686295 -0.92788829 0 0 Z " fill="#161616" transform="translate(417,434)"/>
<path d="M0 0 C4.52346473 2.26173236 5.05828666 3.53405933 7 8 C5.68 7.67 4.36 7.34 3 7 C2.67 12.28 2.34 17.56 2 23 C1.34 23 0.68 23 0 23 C0 15.41 0 7.82 0 0 Z " fill="#F8F8F8" transform="translate(441,433)"/>
<path d="M0 0 C0.66 0 1.32 0 2 0 C2 1.32 2 2.64 2 4 C0.02 4.66 -1.96 5.32 -4 6 C-4 12.6 -4 19.2 -4 26 C-5.65 26.33 -7.3 26.66 -9 27 C-9 26.34 -9 25.68 -9 25 C-8.01 25 -7.02 25 -6 25 C-6 17.74 -6 10.48 -6 3 C-4.02 3 -2.04 3 0 3 C0 2.01 0 1.02 0 0 Z " fill="#000000" transform="translate(369,431)"/>
<path d="M0 0 C0 0.33 0 0.66 0 1 C-4.33222651 2.00818485 -8.64718241 2.31849212 -13.07421875 2.5703125 C-14.22178398 2.63833572 -14.22178398 2.63833572 -15.39253235 2.70773315 C-17.00189864 2.80192743 -18.61137429 2.89426939 -20.22094727 2.98486328 C-22.69005779 3.12514532 -25.15845404 3.27516429 -27.62695312 3.42578125 C-29.1926743 3.51621619 -30.75842859 3.60607995 -32.32421875 3.6953125 C-33.4335804 3.76397018 -33.4335804 3.76397018 -34.56535339 3.83401489 C-39.77084554 4.11457723 -39.77084554 4.11457723 -42 3 C-42 2.34 -42 1.68 -42 1 C-37.62587923 0.8555026 -33.2516943 0.71318089 -28.87744141 0.57275391 C-27.39369868 0.52482898 -25.90997403 0.47634047 -24.42626953 0.42724609 C-16.2819735 0.15814933 -8.15009129 -0.06430052 0 0 Z " fill="#0A0A0A" transform="translate(372,415)"/>
<path d="M0 0 C8.82347457 6.06305795 16.37526658 13.608671 23 22 C22.67 22.66 22.34 23.32 22 24 C21.61255615 23.60731934 21.2251123 23.21463867 20.82592773 22.81005859 C19.03254808 20.99561799 17.23505511 19.18530373 15.4375 17.375 C14.82841797 16.75753906 14.21933594 16.14007813 13.59179688 15.50390625 C10.01163597 11.90480269 6.37758845 8.56166394 2.36743164 5.44384766 C0.71729146 3.70149289 0.39229019 2.33748689 0 0 Z " fill="#131313" transform="translate(364,278)"/>
<path d="M0 0 C2.0625 1.5625 2.0625 1.5625 4 4 C3.94035608 7.39970358 3.80262345 9.86316941 1.80859375 12.6875 C-2.04407802 15.48339139 -7.48175602 14.57848137 -12 14 C-15.25 12 -15.25 12 -17 10 C-16.67 9.01 -16.34 8.02 -16 7 C-15.42765625 7.97646484 -15.42765625 7.97646484 -14.84375 8.97265625 C-13.15246954 11.23981103 -13.15246954 11.23981103 -10.40625 11.49609375 C-8.96765625 11.46708984 -8.96765625 11.46708984 -7.5 11.4375 C-6.06140625 11.43556641 -6.06140625 11.43556641 -4.59375 11.43359375 C-1.65745025 10.94273641 -0.72041621 10.39137853 1 8 C1.31241431 4.87585686 1.00058075 3.00174224 0 0 Z " fill="#111111" transform="translate(222,444)"/>
<path d="M0 0 C6.93 0.495 6.93 0.495 14 1 C14 1.33 14 1.66 14 2 C9.545 2.495 9.545 2.495 5 3 C5.33 3.33 5.66 3.66 6 4 C6.08700342 5.63472882 6.10701063 7.27314055 6.09765625 8.91015625 C6.09443359 9.89951172 6.09121094 10.88886719 6.08789062 11.90820312 C6.07951172 12.94912109 6.07113281 13.99003906 6.0625 15.0625 C6.05798828 16.10728516 6.05347656 17.15207031 6.04882812 18.22851562 C6.03699913 20.8190666 6.02051689 23.40950559 6 26 C4 24 4 24 3.8046875 20.0859375 C3.81799624 18.51550649 3.84186398 16.94513779 3.875 15.375 C3.88402344 14.57320313 3.89304687 13.77140625 3.90234375 12.9453125 C3.92593777 10.96341477 3.96180935 8.98167019 4 7 C1.525 6.01 1.525 6.01 -1 5 C-0.67 3.35 -0.34 1.7 0 0 Z " fill="#787878" transform="translate(54,430)"/>
<path d="M0 0 C1.98 0.99 1.98 0.99 4 2 C3.979375 3.2375 3.95875 4.475 3.9375 5.75 C3.92828137 11.53008301 4.4551393 17.2497737 5 23 C4.01 22.67 3.02 22.34 2 22 C1.09166031 19.27498092 0.81640015 17.37766029 0.68359375 14.55078125 C0.64169922 13.70322266 0.59980469 12.85566406 0.55664062 11.98242188 C0.51732422 11.10134766 0.47800781 10.22027344 0.4375 9.3125 C0.39431641 8.41982422 0.35113281 7.52714844 0.30664062 6.60742188 C0.20064647 4.40509892 0.09857949 2.20266527 0 0 Z " fill="#1D1D1D" transform="translate(239,430)"/>
<path d="M0 0 C2.70269923 2.70269923 3.70570258 5.4252738 5 9 C4.6875 11.4375 4.6875 11.4375 4 13 C3.67 12.01 3.34 11.02 3 10 C2.34 9.67 1.68 9.34 1 9 C0.67 9.66 0.34 10.32 0 11 C0 10.34 0 9.68 0 9 C-0.99 9.495 -0.99 9.495 -2 10 C-2 11.32 -2 12.64 -2 14 C-3.65 14 -5.3 14 -7 14 C-5.68 10.37 -4.36 6.74 -3 3 C-2.34 3.33 -1.68 3.66 -1 4 C-1 4.99 -1 5.98 -1 7 C-0.34 7 0.32 7 1 7 C0.67 4.69 0.34 2.38 0 0 Z " fill="#1B1B1B" transform="translate(334,433)"/>
<path d="M0 0 C0.33 0.66 0.66 1.32 1 2 C1.66 2 2.32 2 3 2 C3.20625 3.0725 3.4125 4.145 3.625 5.25 C5.2588343 9.70591174 6.91110799 10.77777608 11 13 C10.67 13.99 10.34 14.98 10 16 C6.55472339 14.75587233 3.74608248 13.45185936 1 11 C-0.28317892 7.15046324 -0.06643637 4.05261865 0 0 Z " fill="#BBBBBB" transform="translate(400,440)"/>
<path d="M0 0 C2.5625 1.5 2.5625 1.5 4 3 C3.67 3.66 3.34 4.32 3 5 C2.29875 4.484375 1.5975 3.96875 0.875 3.4375 C-2.67206143 1.66396928 -4.2494556 1.85852996 -8 3 C-10.33030405 4.60710624 -10.89531369 5.69399385 -11.8125 8.375 C-12.0833963 12.16754823 -10.66002148 14.67995704 -9 18 C-12.875 16.25 -12.875 16.25 -14 14 C-14.6469176 9.2959849 -14.63833677 6.00898393 -12.0625 1.9375 C-7.96949198 -0.65195405 -4.72705144 -0.84663608 0 0 Z " fill="#111111" transform="translate(151,434)"/>
<path d="M0 0 C1.32 1.32 2.64 2.64 4 4 C3.67 5.03125 3.34 6.0625 3 7.125 C2.02320219 10.49256169 1.91831256 13.48743992 2 17 C1.67 17.66 1.34 18.32 1 19 C-0.65 18.67 -2.3 18.34 -4 18 C-4 13.71 -4 9.42 -4 5 C-3.67 5 -3.34 5 -3 5 C-3 8.96 -3 12.92 -3 17 C-2.01 17 -1.02 17 0 17 C0 11.39 0 5.78 0 0 Z " fill="#000000" transform="translate(177,439)"/>
<path d="M0 0 C0.66 0 1.32 0 2 0 C2 8.25 2 16.5 2 25 C1.34 25 0.68 25 0 25 C-0.19628414 21.20873402 -0.38053896 17.41697828 -0.5625 13.625 C-0.61857422 12.54476563 -0.67464844 11.46453125 -0.73242188 10.3515625 C-0.78076172 9.3203125 -0.82910156 8.2890625 -0.87890625 7.2265625 C-0.9260376 6.27346191 -0.97316895 5.32036133 -1.02172852 4.33837891 C-1 2 -1 2 0 0 Z " fill="#F3F3F3" transform="translate(383,431)"/>
<path d="M0 0 C0.33 0 0.66 0 1 0 C2.41808685 7.97673853 3.28637634 16.40025472 0 24 C-1.9375 23.6875 -1.9375 23.6875 -4 23 C-4.33 22.01 -4.66 21.02 -5 20 C-4.01 20 -3.02 20 -2 20 C-1.01857619 15.75266168 -0.69079621 11.52675467 -0.4375 7.1875 C-0.37272461 6.14819336 -0.37272461 6.14819336 -0.30664062 5.08789062 C-0.20138547 3.39211314 -0.10027137 1.69607948 0 0 Z " fill="#161616" transform="translate(241,156)"/>
<path d="M0 0 C0.66 0.33 1.32 0.66 2 1 C2.4140625 3.06640625 2.4140625 3.06640625 2.625 5.5625 C2.69976562 6.38878906 2.77453125 7.21507812 2.8515625 8.06640625 C2.90054687 8.70449219 2.94953125 9.34257812 3 10 C2.34 10 1.68 10 1 10 C0.67 9.01 0.34 8.02 0 7 C-1.98 11.455 -1.98 11.455 -4 16 C-4.66 15.67 -5.32 15.34 -6 15 C-5.39644592 11.14974121 -4.23227397 8.13898841 -2.4375 4.6875 C-1.98246094 3.80449219 -1.52742188 2.92148437 -1.05859375 2.01171875 C-0.53458984 1.01591797 -0.53458984 1.01591797 0 0 Z " fill="#CFCFCF" transform="translate(332,430)"/>
<path d="M0 0 C3.63 0 7.26 0 11 0 C11.33 1.32 11.66 2.64 12 4 C11.34 3.67 10.68 3.34 10 3 C6.58461856 2.41630557 6.58461856 2.41630557 3 3 C0.78831775 5.94236782 0.78831775 5.94236782 -1 9 C-2.32 9 -3.64 9 -5 9 C-5 8.34 -5 7.68 -5 7 C-4.01 7 -3.02 7 -2 7 C-1.34 4.69 -0.68 2.38 0 0 Z " fill="#191919" transform="translate(326,449)"/>
<path d="M0 0 C0.66 0.33 1.32 0.66 2 1 C2 9.25 2 17.5 2 26 C-0.1447345 22.78289825 -0.29224582 21.66691508 -0.44921875 17.9296875 C-0.49240234 16.95128906 -0.53558594 15.97289062 -0.58007812 14.96484375 C-0.61552734 13.94519531 -0.65097656 12.92554688 -0.6875 11.875 C-0.73455078 10.84761719 -0.78160156 9.82023437 -0.83007812 8.76171875 C-1.05553241 3.16601741 -1.05553241 3.16601741 -1 1 C-0.67 0.67 -0.34 0.34 0 0 Z " fill="#EBEBEB" transform="translate(455,431)"/>
<path d="M0 0 C0.66 0.33 1.32 0.66 2 1 C0.89066271 4.32801186 -0.5391917 6.77284197 -2.6875 9.5 C-4.82672148 12.33346192 -4.82672148 12.33346192 -4.8125 15.9375 C-4.544375 16.618125 -4.27625 17.29875 -4 18 C-6.0625 16.25 -6.0625 16.25 -8 14 C-7.67799882 10.26478636 -5.58617311 7.71907557 -3.4375 4.75 C-2.79683594 3.85796875 -2.15617187 2.9659375 -1.49609375 2.046875 C-0.75552734 1.03367187 -0.75552734 1.03367187 0 0 Z " fill="#0B0B0B" transform="translate(121,431)"/>
<path d="M0 0 C1.32 0.66 2.64 1.32 4 2 C4 3.32 4 4.64 4 6 C1.45539052 5.4910781 -1.08754715 4.9812399 -3.625 4.4375 C-6.08923328 3.90941879 -6.08923328 3.90941879 -9 4 C-9.33 5.32 -9.66 6.64 -10 8 C-10.625 5.625 -10.625 5.625 -11 3 C-9 1 -9 1 -6.1875 0.6875 C-2.67774407 1.03159372 -0.85135899 1.98727601 2 4 C1.34 2.68 0.68 1.36 0 0 Z " fill="#1B1B1B" transform="translate(220,432)"/>
<path d="M0 0 C1.010625 0.763125 2.02125 1.52625 3.0625 2.3125 C9.66473342 7.2671598 16.33860493 12.12538538 23 17 C22.01 17.33 21.02 17.66 20 18 C17.77657666 16.55477483 15.79649584 15.10378688 13.75 13.4375 C13.17096924 12.97730469 12.59193848 12.51710937 11.99536133 12.04296875 C10.32119731 10.70607849 8.65954093 9.35497125 7 8 C6.20464844 7.36191406 5.40929687 6.72382813 4.58984375 6.06640625 C3.01190591 4.76711862 1.49660763 3.39219315 0 2 C0 1.34 0 0.68 0 0 Z " fill="#171717" transform="translate(269,208)"/>
<path d="M0 0 C2.475 0.495 2.475 0.495 5 1 C5.66 3.31 6.32 5.62 7 8 C5.02 6.35 3.04 4.7 1 3 C1 10.59 1 18.18 1 26 C0.67 26 0.34 26 0 26 C0 17.42 0 8.84 0 0 Z " fill="#656565" transform="translate(440,430)"/>
<path d="M0 0 C0.268125 0.556875 0.53625 1.11375 0.8125 1.6875 C1.204375 2.450625 1.59625 3.21375 2 4 C2.433125 4.86625 2.86625 5.7325 3.3125 6.625 C5.28842651 9.4059336 6.77947903 10.04254782 10 11 C9.01 11.99 8.02 12.98 7 14 C0.61067504 10.37362637 0.61067504 10.37362637 -1 8 C-1.25 4.375 -1.25 4.375 -1 1 C-0.67 0.67 -0.34 0.34 0 0 Z " fill="#D9D9D9" transform="translate(135,442)"/>
<path d="M0 0 C2.64 0.33 5.28 0.66 8 1 C9.25455926 5.26550147 8.8380113 7.95637513 7 12 C6.01 12.33 5.02 12.66 4 13 C4.66 9.37 5.32 5.74 6 2 C3.69 2.33 1.38 2.66 -1 3 C-0.67 2.01 -0.34 1.02 0 0 Z " fill="#1B1B1B" transform="translate(350,266)"/>
<path d="M0 0 C-0.33 0.66 -0.66 1.32 -1 2 C-2.093125 2.28875 -3.18625 2.5775 -4.3125 2.875 C-8.12011353 4.03664481 -9.57761624 4.925436 -12 8 C-12.33 8.99 -12.66 9.98 -13 11 C-13.66 11 -14.32 11 -15 11 C-14.58534283 6.16233301 -12.5801385 4.14353624 -9 1 C-6.04335481 -0.4783226 -3.25770263 -0.06032783 0 0 Z " fill="#EEEEEE" transform="translate(416,431)"/>
<path d="M0 0 C1.18851562 0.00902344 2.37703125 0.01804687 3.6015625 0.02734375 C4.51679688 0.03894531 5.43203125 0.05054688 6.375 0.0625 C6.375 0.7225 6.375 1.3825 6.375 2.0625 C3.735 2.3925 1.095 2.7225 -1.625 3.0625 C-1.955 4.3825 -2.285 5.7025 -2.625 7.0625 C-4.605 6.4025 -6.585 5.7425 -8.625 5.0625 C-8.625 3.7425 -8.625 2.4225 -8.625 1.0625 C-5.74084117 -0.37957941 -3.20778472 -0.03144887 0 0 Z " fill="#888888" transform="translate(302.625,429.9375)"/>
<path d="M0 0 C-1 2 -1 2 -2.8984375 2.66796875 C-9.50499872 4.05388774 -15.32925749 3.93846948 -22 3 C-22 2.67 -22 2.34 -22 2 C-20.95199219 1.86722656 -19.90398437 1.73445313 -18.82421875 1.59765625 C-17.44529222 1.41942765 -16.06638707 1.24103359 -14.6875 1.0625 C-13.65206055 0.93198242 -13.65206055 0.93198242 -12.59570312 0.79882812 C-1.91499256 -0.59430804 -1.91499256 -0.59430804 0 0 Z " fill="#161616" transform="translate(389,412)"/>
<path d="M0 0 C0 0.66 0 1.32 0 2 C0.66 2 1.32 2 2 2 C2.66 3.65 3.32 5.3 4 7 C3.01 7 2.02 7 1 7 C-0.11375 5.7934375 -0.11375 5.7934375 -1.25 4.5625 C-4.54404449 1.49304945 -6.5871762 1.25957787 -11 1 C-11 0.67 -11 0.34 -11 0 C-6.53464227 -1.86921951 -4.33629181 -2.2956839 0 0 Z " fill="#D1D1D1" transform="translate(421,433)"/>
<path d="M0 0 C0.66 0.33 1.32 0.66 2 1 C-0.47519408 4.71279112 -1.81577833 4.80628407 -5.95703125 5.7265625 C-8.49892532 6.06677777 -10.5599556 5.76251387 -13 5 C-13.33 4.01 -13.66 3.02 -14 2 C-12.98679688 2.03480469 -12.98679688 2.03480469 -11.953125 2.0703125 C-11.06109375 2.08835937 -10.1690625 2.10640625 -9.25 2.125 C-8.36828125 2.14820313 -7.4865625 2.17140625 -6.578125 2.1953125 C-3.87117062 1.9902402 -2.37397689 1.228275 0 0 Z " fill="#0E0E0E" transform="translate(229,396)"/>
<path d="M0 0 C0.99 0.66 1.98 1.32 3 2 C2.67 4.97 2.34 7.94 2 11 C0.34385343 11.38218767 -1.32457024 11.71395102 -3 12 C-4 11 -4 11 -4.0625 7.9375 C-4.041875 6.968125 -4.02125 5.99875 -4 5 C-3.67 5 -3.34 5 -3 5 C-3 6.65 -3 8.3 -3 10 C-2.01 10 -1.02 10 0 10 C0 6.7 0 3.4 0 0 Z " fill="#030303" transform="translate(110,446)"/>
<path d="M0 0 C0.66 1.65 1.32 3.3 2 5 C1.32453125 4.79503906 0.6490625 4.59007812 -0.046875 4.37890625 C-0.93890625 4.10949219 -1.8309375 3.84007812 -2.75 3.5625 C-3.63171875 3.29566406 -4.5134375 3.02882813 -5.421875 2.75390625 C-7.60565835 2.11531506 -9.78835498 1.53224167 -12 1 C-8.00439392 -1.83022097 -4.57262677 -0.76210446 0 0 Z " fill="#B5B5B5" transform="translate(220,431)"/>
<path d="M0 0 C0.66 0.33 1.32 0.66 2 1 C-0.66695447 3.74058204 -3.53546183 6.15914873 -6.4765625 8.59765625 C-8.11986099 9.94373176 -8.11986099 9.94373176 -9 12 C-9.66 12 -10.32 12 -11 12 C-9.60991124 6.74855359 -6.1957125 4.12699328 -2 1 C-1.34 0.67 -0.68 0.34 0 0 Z " fill="#0C0C0C" transform="translate(145,52)"/>
<path d="M0 0 C3.53586014 3.17320782 5.58578031 5.16743695 6 10 C5.01 10 4.02 10 3 10 C3 9.34 3 8.68 3 8 C2.34 8 1.68 8 1 8 C-1.125 3.375 -1.125 3.375 0 0 Z " fill="#A3A3A3" transform="translate(180,437)"/>
<path d="M0 0 C1 2 1 2 0.29296875 4.56640625 C-0.07183594 5.55511719 -0.43664062 6.54382813 -0.8125 7.5625 C-1.16957031 8.55378906 -1.52664063 9.54507813 -1.89453125 10.56640625 C-3 13 -3 13 -5 14 C-4.09068323 5.05838509 -4.09068323 5.05838509 -2 1 C-1.34 0.67 -0.68 0.34 0 0 Z " fill="#191919" transform="translate(278,75)"/>
<path d="M0 0 C0.99 0.495 0.99 0.495 2 1 C2 1.66 2 2.32 2 3 C6.33420699 5.03165952 10.28596212 5.52060632 15 6 C14.67 6.66 14.34 7.32 14 8 C9.78473241 8.33722141 7.42210731 8.21887045 3.625 6.25 C1 4 1 4 0.125 1.75 C0.08375 1.1725 0.0425 0.595 0 0 Z " fill="#151515" transform="translate(135,450)"/>
<path d="M0 0 C0.66 0 1.32 0 2 0 C1.67 1.32 1.34 2.64 1 4 C-2.96 4 -6.92 4 -11 4 C-11.33 3.34 -11.66 2.68 -12 2 C-8.04 2 -4.08 2 0 2 C0 1.34 0 0.68 0 0 Z " fill="#000000" transform="translate(283,454)"/>
<path d="M0 0 C7.18421053 0.45614035 7.18421053 0.45614035 11 3 C11 3.99 11 4.98 11 6 C10.34 5.71125 9.68 5.4225 9 5.125 C5.37500535 3.76562701 1.76653307 2.89375361 -2 2 C-1.34 1.34 -0.68 0.68 0 0 Z " fill="#F1F1F1" transform="translate(145,431)"/>
<path d="M0 0 C0.66 0.66 1.32 1.32 2 2 C-0.64 2 -3.28 2 -6 2 C-4.68 2.66 -3.36 3.32 -2 4 C-9.625 5.25 -9.625 5.25 -13 3 C-8.51982193 -0.36013356 -5.41184254 -0.44359365 0 0 Z " fill="#737373" transform="translate(151,430)"/>
<path d="M0 0 C0.66 0.33 1.32 0.66 2 1 C2.59355614 3.64860427 2.74209269 6.29197322 3 9 C-0.28696233 9.79953138 -1.71023192 10.09658936 -5 9 C-5 8.34 -5 7.68 -5 7 C-3.02 6.67 -1.04 6.34 1 6 C0.67 4.02 0.34 2.04 0 0 Z " fill="#131313" transform="translate(333,113)"/>
<path d="M0 0 C0 0.99 0 1.98 0 3 C-3.96 3 -7.92 3 -12 3 C-12 2.34 -12 1.68 -12 1 C-7.95858806 0.36605303 -4.0934693 -0.12404452 0 0 Z " fill="#D1D1D1" transform="translate(93,446)"/>
<path d="M0 0 C3.10331257 0.92260644 4.74711947 1.70497271 6.875 4.1875 C8.32502401 7.81256003 7.81163525 10.23696384 7 14 C6.67 14 6.34 14 6 14 C5.86722656 13.38511719 5.73445312 12.77023437 5.59765625 12.13671875 C5.42105469 11.32847656 5.24445313 10.52023437 5.0625 9.6875 C4.88847656 8.88699219 4.71445313 8.08648437 4.53515625 7.26171875 C4.00113841 4.854599 4.00113841 4.854599 3 2 C2.01 1.67 1.02 1.34 0 1 C0 0.67 0 0.34 0 0 Z " fill="#161616" transform="translate(153,432)"/>
<path d="M0 0 C-0.33 0.66 -0.66 1.32 -1 2 C-3.36328125 2.484375 -3.36328125 2.484375 -6.3125 2.75 C-7.27800781 2.84796875 -8.24351562 2.9459375 -9.23828125 3.046875 C-12.11379693 2.99806851 -13.58180146 2.49342428 -16 1 C-10.59255982 0.22750855 -5.46137814 -0.09752461 0 0 Z " fill="#222222" transform="translate(174,47)"/>
<path d="M0 0 C1.32 1.32 2.64 2.64 4 4 C3.34 6.31 2.68 8.62 2 11 C1.34 11 0.68 11 0 11 C0 7.37 0 3.74 0 0 Z " fill="#080808" transform="translate(177,439)"/>
<path d="M0 0 C2.70269923 2.70269923 3.70570258 5.4252738 5 9 C4.6875 11.4375 4.6875 11.4375 4 13 C3.67 12.01 3.34 11.02 3 10 C2.34 9.67 1.68 9.34 1 9 C0.67 9.66 0.34 10.32 0 11 C0 7.37 0 3.74 0 0 Z " fill="#4E4E4E" transform="translate(334,433)"/>
<path d="M0 0 C0.99 0.33 1.98 0.66 3 1 C2.67 2.32 2.34 3.64 2 5 C0.02 5 -1.96 5 -4 5 C-4.33 5.66 -4.66 6.32 -5 7 C-5 5.68 -5 4.36 -5 3 C-3.35 3 -1.7 3 0 3 C0 2.01 0 1.02 0 0 Z " fill="#080808" transform="translate(309,431)"/>
<path d="M0 0 C4.8 3.44615385 4.8 3.44615385 5.8125 6.25 C5.874375 6.8275 5.93625 7.405 6 8 C4.35 8.33 2.7 8.66 1 9 C1 8.01 1 7.02 1 6 C1.66 6 2.32 6 3 6 C2.2575 5.071875 2.2575 5.071875 1.5 4.125 C0 2 0 2 0 0 Z " fill="#0E0E0E" transform="translate(117,449)"/>
<path d="M0 0 C0.95465783 2.16967689 1.14401212 3.56328793 0.3984375 5.82421875 C-0.35870385 7.5684743 -1.17609198 9.28627131 -2 11 C-2.66 10.67 -3.32 10.34 -4 10 C-3.43454163 6.04179141 -2.19097652 3.3340947 0 0 Z " fill="#EAEAEA" transform="translate(330,435)"/>
<path d="M0 0 C2.83374881 3.20336822 3.5205537 5.78087253 4 10 C2.35 9.67 0.7 9.34 -1 9 C-0.67 8.34 -0.34 7.68 0 7 C0.66 7.33 1.32 7.66 2 8 C1.67 7.236875 1.34 6.47375 1 5.6875 C0 3 0 3 0 0 Z " fill="#111111" transform="translate(340,448)"/>
<path d="M0 0 C1.875 0.3125 1.875 0.3125 4 1 C4.66 1.99 5.32 2.98 6 4 C5.67 4.66 5.34 5.32 5 6 C3.0625 5.25 3.0625 5.25 1 4 C0.25 1.875 0.25 1.875 0 0 Z " fill="#C1C1C1" transform="translate(206,450)"/>
<path d="M0 0 C0.33 0 0.66 0 1 0 C1.66 3.3 2.32 6.6 3 10 C1.68 9.67 0.36 9.34 -1 9 C-0.67 6.03 -0.34 3.06 0 0 Z " fill="#BFBFBF" transform="translate(339,446)"/>
<path d="M0 0 C0.33 0.66 0.66 1.32 1 2 C1.66 2 2.32 2 3 2 C3 4.31 3 6.62 3 9 C2.01 8.67 1.02 8.34 0 8 C0 5.36 0 2.72 0 0 Z " fill="#D4D4D4" transform="translate(400,440)"/>
<path d="M0 0 C0.33 0.66 0.66 1.32 1 2 C0.67 2.66 0.34 3.32 0 4 C-0.0689472 5.37342831 -0.08467708 6.75002102 -0.0625 8.125 C-0.041875 9.40375 -0.02125 10.6825 0 12 C-1.5 10.875 -1.5 10.875 -3 9 C-3.375 6 -3.375 6 -3 3 C-1.5 1.125 -1.5 1.125 0 0 Z " fill="#030303" transform="translate(406,438)"/>
<path d="M0 0 C2 2 2 2 2.125 5.125 C2.08375 6.07375 2.0425 7.0225 2 8 C0.35 8.33 -1.3 8.66 -3 9 C-2.34 8.67 -1.68 8.34 -1 8 C-0.53476937 6.10466658 -0.53476937 6.10466658 -0.375 3.9375 C-0.25125 2.638125 -0.1275 1.33875 0 0 Z " fill="#121212" transform="translate(321,409)"/>
<path d="M0 0 C2.64 0 5.28 0 8 0 C7.67 0.99 7.34 1.98 7 3 C5.02 3 3.04 3 1 3 C0.67 2.01 0.34 1.02 0 0 Z " fill="#131313" transform="translate(427,161)"/>
<path d="M0 0 C2.46800047 1.15173355 4.04783565 2.04783565 6 4 C5.625 6.125 5.625 6.125 5 8 C3.68 8.33 2.36 8.66 1 9 C1.391875 8.2575 1.78375 7.515 2.1875 6.75 C2.455625 5.8425 2.72375 4.935 3 4 C1.73647948 1.67488528 1.73647948 1.67488528 0 0 Z " fill="#0D0D0D" transform="translate(264,378)"/>
<path d="M0 0 C0.33 0.66 0.66 1.32 1 2 C2.98 2 4.96 2 7 2 C6.67 3.32 6.34 4.64 6 6 C4.02 5.34 2.04 4.68 0 4 C0 2.68 0 1.36 0 0 Z " fill="#474747" transform="translate(294,431)"/>
<path d="M0 0 C-0.33 0.99 -0.66 1.98 -1 3 C-3.64 3 -6.28 3 -9 3 C-8.67 2.34 -8.34 1.68 -8 1 C-5.30114269 0.42577504 -2.76207303 0 0 0 Z " fill="#F7F7F7" transform="translate(152,453)"/>
<path d="M0 0 C0.33 0.66 0.66 1.32 1 2 C1.99 2.33 2.98 2.66 4 3 C4 3.99 4 4.98 4 6 C1.03 5.505 1.03 5.505 -2 5 C-2 3.68 -2 2.36 -2 1 C-1.34 0.67 -0.68 0.34 0 0 Z " fill="#5A5A5A" transform="translate(356,430)"/>
<path d="M0 0 C0.66 0.99 1.32 1.98 2 3 C2.99 3.66 3.98 4.32 5 5 C4.67 5.66 4.34 6.32 4 7 C0.83884224 5.63016497 0.0072908 5.0109362 -2 2 C-1.34 2 -0.68 2 0 2 C0 1.34 0 0.68 0 0 Z " fill="#DEDEDE" transform="translate(240,449)"/>
<path d="M0 0 C0.33 0.99 0.66 1.98 1 3 C0.34 3 -0.32 3 -1 3 C-1.33 3.99 -1.66 4.98 -2 6 C-2.99 5.34 -3.98 4.68 -5 4 C-3 1 -3 1 0 0 Z " fill="#D4D4D4" transform="translate(140,433)"/>
<path d="M0 0 C-0.33 0.66 -0.66 1.32 -1 2 C-3.64860427 2.59355614 -6.29197322 2.74209269 -9 3 C-9 2.34 -9 1.68 -9 1 C-6.04335481 -0.4783226 -3.25770263 -0.06032783 0 0 Z " fill="#F4F4F4" transform="translate(416,431)"/>
<path d="M0 0 C0.66 0.33 1.32 0.66 2 1 C1.01 2.485 1.01 2.485 0 4 C-1.9453125 4.29296875 -1.9453125 4.29296875 -4.125 4.1875 C-5.40375 4.125625 -6.6825 4.06375 -8 4 C-6.66666667 3.33333333 -5.33333333 2.66666667 -4 2 C-3.29875 1.608125 -2.5975 1.21625 -1.875 0.8125 C-1.25625 0.544375 -0.6375 0.27625 0 0 Z " fill="#0F0F0F" transform="translate(419,454)"/>
</svg>
